<?xml version="1.0" encoding="UTF-8" standalone="no"?>
<!DOCTYPE svg PUBLIC "-//W3C//DTD SVG 1.1//EN"
 "http://www.w3.org/Graphics/SVG/1.1/DTD/svg11.dtd">
<!-- Generated by graphviz version 9.0.0 (20230911.1827)
 -->
<!-- Title: tree Pages: 1 -->
<svg width="366pt" height="390pt"
 viewBox="0.00 0.00 365.60 389.60" xmlns="http://www.w3.org/2000/svg" xmlns:xlink="http://www.w3.org/1999/xlink">
<g id="graph0" class="graph" transform="scale(1 1) rotate(0) translate(4 385.6)">
<title>tree</title>
<polygon fill="white" stroke="none" points="-4,4 -4,-385.6 361.6,-385.6 361.6,4 -4,4"/>
<!-- l1 -->
<g id="node1" class="node">
<title>l1</title>
<ellipse fill="blue" stroke="blue" cx="237.8" cy="-219.6" rx="10.8" ry="10.8"/>
</g>
<!-- l2 -->
<g id="node2" class="node">
<title>l2</title>
<ellipse fill="blue" stroke="blue" cx="10.8" cy="-147.6" rx="10.8" ry="10.8"/>
</g>
<!-- l3 -->
<g id="node3" class="node">
<title>l3</title>
<ellipse fill="blue" stroke="blue" cx="50.8" cy="-147.6" rx="10.8" ry="10.8"/>
</g>
<!-- l4 -->
<g id="node4" class="node">
<title>l4</title>
<ellipse fill="blue" stroke="blue" cx="306.8" cy="-147.6" rx="10.8" ry="10.8"/>
</g>
<!-- l5 -->
<g id="node5" class="node">
<title>l5</title>
<ellipse fill="blue" stroke="blue" cx="346.8" cy="-147.6" rx="10.8" ry="10.8"/>
</g>
<!-- l6 -->
<g id="node6" class="node">
<title>l6</title>
<ellipse fill="blue" stroke="blue" cx="139.8" cy="-75.6" rx="10.8" ry="10.8"/>
</g>
<!-- l7 -->
<g id="node7" class="node">
<title>l7</title>
<ellipse fill="blue" stroke="blue" cx="294.8" cy="-75.6" rx="10.8" ry="10.8"/>
</g>
<!-- l8 -->
<g id="node8" class="node">
<title>l8</title>
<ellipse fill="blue" stroke="blue" cx="49.8" cy="-10.8" rx="10.8" ry="10.8"/>
</g>
<!-- l9 -->
<g id="node9" class="node">
<title>l9</title>
<ellipse fill="blue" stroke="blue" cx="89.8" cy="-10.8" rx="10.8" ry="10.8"/>
</g>
<!-- l10 -->
<g id="node10" class="node">
<title>l10</title>
<ellipse fill="blue" stroke="blue" cx="204.8" cy="-10.8" rx="10.8" ry="10.8"/>
</g>
<!-- l11 -->
<g id="node11" class="node">
<title>l11</title>
<ellipse fill="blue" stroke="blue" cx="244.8" cy="-10.8" rx="10.8" ry="10.8"/>
</g>
<!-- n1 -->
<g id="node12" class="node">
<title>n1</title>
<ellipse fill="none" stroke="black" cx="190.8" cy="-363.6" rx="45.72" ry="18"/>
<text text-anchor="middle" x="190.8" y="-358.55" font-family="Times,serif" font-size="14.00">66 (S 10)</text>
</g>
<!-- n2 -->
<g id="node13" class="node">
<title>n2</title>
<ellipse fill="none" stroke="black" cx="142.8" cy="-291.6" rx="36.51" ry="18"/>
<text text-anchor="middle" x="142.8" y="-286.55" font-family="Times,serif" font-size="14.00">7 (S 7)</text>
</g>
<!-- n1&#45;&gt;n2 -->
<g id="edge1" class="edge">
<title>n1&#45;&gt;n2</title>
<path fill="none" stroke="black" d="M179.42,-346.01C173.81,-337.82 166.9,-327.74 160.6,-318.55"/>
<polygon fill="black" stroke="black" points="163.49,-316.59 154.95,-310.32 157.72,-320.54 163.49,-316.59"/>
</g>
<!-- n3 -->
<g id="node14" class="node">
<title>n3</title>
<ellipse fill="none" stroke="black" cx="238.8" cy="-291.6" rx="41.12" ry="18"/>
<text text-anchor="middle" x="238.8" y="-286.55" font-family="Times,serif" font-size="14.00">85 (S 2)</text>
</g>
<!-- n1&#45;&gt;n3 -->
<g id="edge2" class="edge">
<title>n1&#45;&gt;n3</title>
<path fill="none" stroke="black" d="M202.18,-346.01C207.79,-337.82 214.7,-327.74 221,-318.55"/>
<polygon fill="black" stroke="black" points="223.88,-320.54 226.65,-310.32 218.11,-316.59 223.88,-320.54"/>
</g>
<!-- n4 -->
<g id="node15" class="node">
<title>n4</title>
<ellipse fill="none" stroke="black" cx="49.8" cy="-219.6" rx="36.51" ry="18"/>
<text text-anchor="middle" x="49.8" y="-214.55" font-family="Times,serif" font-size="14.00">2 (S 1)</text>
</g>
<!-- n2&#45;&gt;n4 -->
<g id="edge3" class="edge">
<title>n2&#45;&gt;n4</title>
<path fill="none" stroke="black" d="M123.53,-276.1C110.44,-266.24 92.9,-253.04 78.21,-241.98"/>
<polygon fill="black" stroke="black" points="80.35,-239.21 70.25,-236 76.14,-244.81 80.35,-239.21"/>
</g>
<!-- n5 -->
<g id="node16" class="node">
<title>n5</title>
<ellipse fill="none" stroke="black" cx="145.8" cy="-219.6" rx="41.12" ry="18"/>
<text text-anchor="middle" x="145.8" y="-214.55" font-family="Times,serif" font-size="14.00">36 (S 5)</text>
</g>
<!-- n2&#45;&gt;n5 -->
<g id="edge4" class="edge">
<title>n2&#45;&gt;n5</title>
<path fill="none" stroke="black" d="M143.54,-273.3C143.85,-266.01 144.23,-257.33 144.58,-249.14"/>
<polygon fill="black" stroke="black" points="148.07,-249.36 145,-239.22 141.08,-249.06 148.07,-249.36"/>
</g>
<!-- n3&#45;&gt;l1 -->
<g id="edge5" class="edge">
<title>n3&#45;&gt;l1</title>
<path fill="none" stroke="black" d="M238.55,-273.3C238.42,-263.85 238.25,-252.06 238.11,-242.03"/>
<polygon fill="black" stroke="black" points="241.61,-242.04 237.96,-232.09 234.61,-242.14 241.61,-242.04"/>
</g>
<!-- n6 -->
<g id="node17" class="node">
<title>n6</title>
<ellipse fill="none" stroke="black" cx="307.8" cy="-219.6" rx="41.12" ry="18"/>
<text text-anchor="middle" x="307.8" y="-214.55" font-family="Times,serif" font-size="14.00">96 (S 1)</text>
</g>
<!-- n3&#45;&gt;n6 -->
<g id="edge6" class="edge">
<title>n3&#45;&gt;n6</title>
<path fill="none" stroke="black" d="M254.46,-274.72C263.28,-265.77 274.47,-254.41 284.33,-244.41"/>
<polygon fill="black" stroke="black" points="286.61,-247.08 291.14,-237.5 281.63,-242.16 286.61,-247.08"/>
</g>
<!-- n4&#45;&gt;l2 -->
<g id="edge7" class="edge">
<title>n4&#45;&gt;l2</title>
<path fill="none" stroke="black" d="M40.56,-202.01C34.81,-191.69 27.39,-178.38 21.4,-167.63"/>
<polygon fill="black" stroke="black" points="24.47,-165.94 16.54,-158.91 18.35,-169.35 24.47,-165.94"/>
</g>
<!-- n4&#45;&gt;l3 -->
<g id="edge8" class="edge">
<title>n4&#45;&gt;l3</title>
<path fill="none" stroke="black" d="M50.05,-201.3C50.18,-191.85 50.35,-180.06 50.49,-170.03"/>
<polygon fill="black" stroke="black" points="53.99,-170.14 50.64,-160.09 46.99,-170.04 53.99,-170.14"/>
</g>
<!-- n7 -->
<g id="node18" class="node">
<title>n7</title>
<ellipse fill="none" stroke="black" cx="131.8" cy="-147.6" rx="41.12" ry="18"/>
<text text-anchor="middle" x="131.8" y="-142.55" font-family="Times,serif" font-size="14.00">26 (S 2)</text>
</g>
<!-- n5&#45;&gt;n7 -->
<g id="edge9" class="edge">
<title>n5&#45;&gt;n7</title>
<path fill="none" stroke="black" d="M142.34,-201.3C140.86,-193.92 139.1,-185.12 137.45,-176.85"/>
<polygon fill="black" stroke="black" points="140.91,-176.31 135.52,-167.19 134.05,-177.68 140.91,-176.31"/>
</g>
<!-- n8 -->
<g id="node19" class="node">
<title>n8</title>
<ellipse fill="none" stroke="black" cx="231.8" cy="-147.6" rx="41.12" ry="18"/>
<text text-anchor="middle" x="231.8" y="-142.55" font-family="Times,serif" font-size="14.00">62 (S 2)</text>
</g>
<!-- n5&#45;&gt;n8 -->
<g id="edge10" class="edge">
<title>n5&#45;&gt;n8</title>
<path fill="none" stroke="black" d="M164.46,-203.41C176.1,-193.94 191.29,-181.57 204.29,-170.99"/>
<polygon fill="black" stroke="black" points="206.16,-173.98 211.7,-164.96 201.74,-168.55 206.16,-173.98"/>
</g>
<!-- n6&#45;&gt;l4 -->
<g id="edge11" class="edge">
<title>n6&#45;&gt;l4</title>
<path fill="none" stroke="black" d="M307.55,-201.3C307.42,-191.85 307.25,-180.06 307.11,-170.03"/>
<polygon fill="black" stroke="black" points="310.61,-170.04 306.96,-160.09 303.61,-170.14 310.61,-170.04"/>
</g>
<!-- n6&#45;&gt;l5 -->
<g id="edge12" class="edge">
<title>n6&#45;&gt;l5</title>
<path fill="none" stroke="black" d="M317.24,-201.65C323,-191.32 330.36,-178.1 336.3,-167.44"/>
<polygon fill="black" stroke="black" points="339.3,-169.25 341.11,-158.81 333.18,-165.85 339.3,-169.25"/>
</g>
<!-- n7&#45;&gt;l6 -->
<g id="edge14" class="edge">
<title>n7&#45;&gt;l6</title>
<path fill="none" stroke="black" d="M133.78,-129.3C134.87,-119.74 136.23,-107.8 137.39,-97.7"/>
<polygon fill="black" stroke="black" points="140.83,-98.41 138.49,-88.08 133.88,-97.62 140.83,-98.41"/>
</g>
<!-- n9 -->
<g id="node20" class="node">
<title>n9</title>
<ellipse fill="none" stroke="black" cx="69.8" cy="-75.6" rx="41.12" ry="18"/>
<text text-anchor="middle" x="69.8" y="-70.55" font-family="Times,serif" font-size="14.00">12 (S 1)</text>
</g>
<!-- n7&#45;&gt;n9 -->
<g id="edge13" class="edge">
<title>n7&#45;&gt;n9</title>
<path fill="none" stroke="black" d="M117.42,-130.36C109.75,-121.71 100.16,-110.87 91.59,-101.2"/>
<polygon fill="black" stroke="black" points="94.36,-99.05 85.11,-93.88 89.12,-103.69 94.36,-99.05"/>
</g>
<!-- n8&#45;&gt;l7 -->
<g id="edge16" class="edge">
<title>n8&#45;&gt;l7</title>
<path fill="none" stroke="black" d="M246.41,-130.36C256.64,-119.01 270.23,-103.9 280.4,-92.6"/>
<polygon fill="black" stroke="black" points="282.9,-95.06 286.99,-85.28 277.69,-90.37 282.9,-95.06"/>
</g>
<!-- n10 -->
<g id="node21" class="node">
<title>n10</title>
<ellipse fill="none" stroke="black" cx="224.8" cy="-75.6" rx="41.12" ry="18"/>
<text text-anchor="middle" x="224.8" y="-70.55" font-family="Times,serif" font-size="14.00">38 (S 1)</text>
</g>
<!-- n8&#45;&gt;n10 -->
<g id="edge15" class="edge">
<title>n8&#45;&gt;n10</title>
<path fill="none" stroke="black" d="M230.07,-129.3C229.34,-122.01 228.47,-113.33 227.65,-105.14"/>
<polygon fill="black" stroke="black" points="231.14,-104.81 226.66,-95.21 224.17,-105.51 231.14,-104.81"/>
</g>
<!-- n9&#45;&gt;l8 -->
<g id="edge17" class="edge">
<title>n9&#45;&gt;l8</title>
<path fill="none" stroke="black" d="M64.33,-57.44C61.85,-49.63 58.89,-40.33 56.29,-32.17"/>
<polygon fill="black" stroke="black" points="59.67,-31.25 53.3,-22.78 53,-33.37 59.67,-31.25"/>
</g>
<!-- n9&#45;&gt;l9 -->
<g id="edge18" class="edge">
<title>n9&#45;&gt;l9</title>
<path fill="none" stroke="black" d="M75.27,-57.44C77.75,-49.63 80.71,-40.33 83.31,-32.17"/>
<polygon fill="black" stroke="black" points="86.6,-33.37 86.3,-22.78 79.93,-31.25 86.6,-33.37"/>
</g>
<!-- n10&#45;&gt;l10 -->
<g id="edge19" class="edge">
<title>n10&#45;&gt;l10</title>
<path fill="none" stroke="black" d="M219.33,-57.44C216.85,-49.63 213.89,-40.33 211.29,-32.17"/>
<polygon fill="black" stroke="black" points="214.67,-31.25 208.3,-22.78 208,-33.37 214.67,-31.25"/>
</g>
<!-- n10&#45;&gt;l11 -->
<g id="edge20" class="edge">
<title>n10&#45;&gt;l11</title>
<path fill="none" stroke="black" d="M230.27,-57.44C232.75,-49.63 235.71,-40.33 238.31,-32.17"/>
<polygon fill="black" stroke="black" points="241.6,-33.37 241.3,-22.78 234.93,-31.25 241.6,-33.37"/>
</g>
</g>
</svg>
