<?xml version="1.0" encoding="UTF-8" standalone="no"?>
<!DOCTYPE svg PUBLIC "-//W3C//DTD SVG 1.1//EN"
 "http://www.w3.org/Graphics/SVG/1.1/DTD/svg11.dtd">
<!-- Generated by graphviz version 9.0.0 (20230911.1827)
 -->
<!-- Title: tree Pages: 1 -->
<svg width="190pt" height="246pt"
 viewBox="0.00 0.00 190.23 245.60" xmlns="http://www.w3.org/2000/svg" xmlns:xlink="http://www.w3.org/1999/xlink">
<g id="graph0" class="graph" transform="scale(1 1) rotate(0) translate(4 241.6)">
<title>tree</title>
<polygon fill="white" stroke="none" points="-4,4 -4,-241.6 186.23,-241.6 186.23,4 -4,4"/>
<!-- l1 -->
<g id="node1" class="node">
<title>l1</title>
<ellipse fill="blue" stroke="blue" cx="21.12" cy="-147.6" rx="10.8" ry="10.8"/>
</g>
<!-- l2 -->
<g id="node2" class="node">
<title>l2</title>
<ellipse fill="blue" stroke="blue" cx="31.12" cy="-10.8" rx="10.8" ry="10.8"/>
</g>
<!-- l3 -->
<g id="node3" class="node">
<title>l3</title>
<ellipse fill="blue" stroke="blue" cx="71.12" cy="-10.8" rx="10.8" ry="10.8"/>
</g>
<!-- l4 -->
<g id="node4" class="node">
<title>l4</title>
<ellipse fill="blue" stroke="blue" cx="126.12" cy="-10.8" rx="10.8" ry="10.8"/>
</g>
<!-- l5 -->
<g id="node5" class="node">
<title>l5</title>
<ellipse fill="blue" stroke="blue" cx="166.12" cy="-10.8" rx="10.8" ry="10.8"/>
</g>
<!-- n1 -->
<g id="node6" class="node">
<title>n1</title>
<ellipse fill="none" stroke="black" cx="56.12" cy="-219.6" rx="36.51" ry="18"/>
<text text-anchor="middle" x="56.12" y="-214.55" font-family="Times,serif" font-size="14.00">2 (S 4)</text>
</g>
<!-- n1&#45;&gt;l1 -->
<g id="edge1" class="edge">
<title>n1&#45;&gt;l1</title>
<path fill="none" stroke="black" d="M47.64,-201.65C42.59,-191.55 36.16,-178.69 30.89,-168.15"/>
<polygon fill="black" stroke="black" points="34.04,-166.61 26.43,-159.24 27.77,-169.75 34.04,-166.61"/>
</g>
<!-- n2 -->
<g id="node7" class="node">
<title>n2</title>
<ellipse fill="none" stroke="black" cx="91.12" cy="-147.6" rx="41.12" ry="18"/>
<text text-anchor="middle" x="91.12" y="-142.55" font-family="Times,serif" font-size="14.00">66 (S 3)</text>
</g>
<!-- n1&#45;&gt;n2 -->
<g id="edge2" class="edge">
<title>n1&#45;&gt;n2</title>
<path fill="none" stroke="black" d="M64.59,-201.65C68.5,-193.83 73.24,-184.35 77.63,-175.58"/>
<polygon fill="black" stroke="black" points="80.7,-177.25 82.04,-166.74 74.44,-174.12 80.7,-177.25"/>
</g>
<!-- n3 -->
<g id="node8" class="node">
<title>n3</title>
<ellipse fill="none" stroke="black" cx="41.12" cy="-75.6" rx="41.12" ry="18"/>
<text text-anchor="middle" x="41.12" y="-70.55" font-family="Times,serif" font-size="14.00">36 (S 1)</text>
</g>
<!-- n2&#45;&gt;n3 -->
<g id="edge3" class="edge">
<title>n2&#45;&gt;n3</title>
<path fill="none" stroke="black" d="M79.27,-130.01C73.35,-121.73 66.06,-111.52 59.45,-102.26"/>
<polygon fill="black" stroke="black" points="62.42,-100.4 53.76,-94.3 56.72,-104.47 62.42,-100.4"/>
</g>
<!-- n4 -->
<g id="node9" class="node">
<title>n4</title>
<ellipse fill="none" stroke="black" cx="141.12" cy="-75.6" rx="41.12" ry="18"/>
<text text-anchor="middle" x="141.12" y="-70.55" font-family="Times,serif" font-size="14.00">85 (S 1)</text>
</g>
<!-- n2&#45;&gt;n4 -->
<g id="edge4" class="edge">
<title>n2&#45;&gt;n4</title>
<path fill="none" stroke="black" d="M102.96,-130.01C108.88,-121.73 116.17,-111.52 122.79,-102.26"/>
<polygon fill="black" stroke="black" points="125.51,-104.47 128.47,-94.3 119.81,-100.4 125.51,-104.47"/>
</g>
<!-- n3&#45;&gt;l2 -->
<g id="edge5" class="edge">
<title>n3&#45;&gt;l2</title>
<path fill="none" stroke="black" d="M38.38,-57.44C37.18,-49.91 35.76,-40.99 34.5,-33.05"/>
<polygon fill="black" stroke="black" points="37.96,-32.52 32.93,-23.19 31.05,-33.62 37.96,-32.52"/>
</g>
<!-- n3&#45;&gt;l3 -->
<g id="edge6" class="edge">
<title>n3&#45;&gt;l3</title>
<path fill="none" stroke="black" d="M49.15,-57.77C53.06,-49.59 57.79,-39.7 61.85,-31.2"/>
<polygon fill="black" stroke="black" points="64.88,-32.98 66.03,-22.45 58.56,-29.96 64.88,-32.98"/>
</g>
<!-- n4&#45;&gt;l4 -->
<g id="edge7" class="edge">
<title>n4&#45;&gt;l4</title>
<path fill="none" stroke="black" d="M137.02,-57.44C135.2,-49.82 133.04,-40.78 131.12,-32.76"/>
<polygon fill="black" stroke="black" points="134.56,-32.08 128.83,-23.17 127.75,-33.71 134.56,-32.08"/>
</g>
<!-- n4&#45;&gt;l5 -->
<g id="edge8" class="edge">
<title>n4&#45;&gt;l5</title>
<path fill="none" stroke="black" d="M147.95,-57.44C151.09,-49.54 154.84,-40.12 158.12,-31.89"/>
<polygon fill="black" stroke="black" points="161.31,-33.33 161.76,-22.74 154.81,-30.74 161.31,-33.33"/>
</g>
</g>
</svg>
