<?xml version="1.0" encoding="UTF-8" standalone="no"?>
<!DOCTYPE svg PUBLIC "-//W3C//DTD SVG 1.1//EN"
 "http://www.w3.org/Graphics/SVG/1.1/DTD/svg11.dtd">
<!-- Generated by graphviz version 9.0.0 (20230911.1827)
 -->
<!-- Title: tree Pages: 1 -->
<svg width="341pt" height="318pt"
 viewBox="0.00 0.00 340.92 317.60" xmlns="http://www.w3.org/2000/svg" xmlns:xlink="http://www.w3.org/1999/xlink">
<g id="graph0" class="graph" transform="scale(1 1) rotate(0) translate(4 313.6)">
<title>tree</title>
<polygon fill="white" stroke="none" points="-4,4 -4,-313.6 336.92,-313.6 336.92,4 -4,4"/>
<!-- l1 -->
<g id="node1" class="node">
<title>l1</title>
<ellipse fill="blue" stroke="blue" cx="221.8" cy="-147.6" rx="10.8" ry="10.8"/>
</g>
<!-- l2 -->
<g id="node2" class="node">
<title>l2</title>
<ellipse fill="blue" stroke="blue" cx="10.8" cy="-75.6" rx="10.8" ry="10.8"/>
</g>
<!-- l3 -->
<g id="node3" class="node">
<title>l3</title>
<ellipse fill="blue" stroke="blue" cx="50.8" cy="-75.6" rx="10.8" ry="10.8"/>
</g>
<!-- l4 -->
<g id="node4" class="node">
<title>l4</title>
<ellipse fill="blue" stroke="blue" cx="203.8" cy="-75.6" rx="10.8" ry="10.8"/>
</g>
<!-- l5 -->
<g id="node5" class="node">
<title>l5</title>
<ellipse fill="blue" stroke="blue" cx="258.8" cy="-75.6" rx="10.8" ry="10.8"/>
</g>
<!-- l6 -->
<g id="node6" class="node">
<title>l6</title>
<ellipse fill="blue" stroke="blue" cx="298.8" cy="-75.6" rx="10.8" ry="10.8"/>
</g>
<!-- l7 -->
<g id="node7" class="node">
<title>l7</title>
<ellipse fill="blue" stroke="blue" cx="113.8" cy="-10.8" rx="10.8" ry="10.8"/>
</g>
<!-- l8 -->
<g id="node8" class="node">
<title>l8</title>
<ellipse fill="blue" stroke="blue" cx="153.8" cy="-10.8" rx="10.8" ry="10.8"/>
</g>
<!-- n1 -->
<g id="node9" class="node">
<title>n1</title>
<ellipse fill="none" stroke="black" cx="180.8" cy="-291.6" rx="41.12" ry="18"/>
<text text-anchor="middle" x="180.8" y="-286.55" font-family="Times,serif" font-size="14.00">66 (S 7)</text>
</g>
<!-- n2 -->
<g id="node10" class="node">
<title>n2</title>
<ellipse fill="none" stroke="black" cx="132.8" cy="-219.6" rx="36.51" ry="18"/>
<text text-anchor="middle" x="132.8" y="-214.55" font-family="Times,serif" font-size="14.00">7 (S 4)</text>
</g>
<!-- n1&#45;&gt;n2 -->
<g id="edge1" class="edge">
<title>n1&#45;&gt;n2</title>
<path fill="none" stroke="black" d="M169.42,-274.01C163.81,-265.82 156.9,-255.74 150.6,-246.55"/>
<polygon fill="black" stroke="black" points="153.49,-244.59 144.95,-238.32 147.72,-248.54 153.49,-244.59"/>
</g>
<!-- n3 -->
<g id="node11" class="node">
<title>n3</title>
<ellipse fill="none" stroke="black" cx="228.8" cy="-219.6" rx="41.12" ry="18"/>
<text text-anchor="middle" x="228.8" y="-214.55" font-family="Times,serif" font-size="14.00">85 (S 2)</text>
</g>
<!-- n1&#45;&gt;n3 -->
<g id="edge2" class="edge">
<title>n1&#45;&gt;n3</title>
<path fill="none" stroke="black" d="M192.18,-274.01C197.79,-265.82 204.7,-255.74 211,-246.55"/>
<polygon fill="black" stroke="black" points="213.88,-248.54 216.65,-238.32 208.11,-244.59 213.88,-248.54"/>
</g>
<!-- n4 -->
<g id="node12" class="node">
<title>n4</title>
<ellipse fill="none" stroke="black" cx="43.8" cy="-147.6" rx="36.51" ry="18"/>
<text text-anchor="middle" x="43.8" y="-142.55" font-family="Times,serif" font-size="14.00">2 (S 1)</text>
</g>
<!-- n2&#45;&gt;n4 -->
<g id="edge3" class="edge">
<title>n2&#45;&gt;n4</title>
<path fill="none" stroke="black" d="M113.93,-203.75C101.65,-194.1 85.44,-181.35 71.69,-170.54"/>
<polygon fill="black" stroke="black" points="73.86,-167.79 63.84,-164.36 69.53,-173.29 73.86,-167.79"/>
</g>
<!-- n5 -->
<g id="node13" class="node">
<title>n5</title>
<ellipse fill="none" stroke="black" cx="139.8" cy="-147.6" rx="41.12" ry="18"/>
<text text-anchor="middle" x="139.8" y="-142.55" font-family="Times,serif" font-size="14.00">36 (S 2)</text>
</g>
<!-- n2&#45;&gt;n5 -->
<g id="edge4" class="edge">
<title>n2&#45;&gt;n5</title>
<path fill="none" stroke="black" d="M134.53,-201.3C135.26,-194.01 136.13,-185.33 136.95,-177.14"/>
<polygon fill="black" stroke="black" points="140.43,-177.51 137.94,-167.21 133.46,-176.81 140.43,-177.51"/>
</g>
<!-- n3&#45;&gt;l1 -->
<g id="edge5" class="edge">
<title>n3&#45;&gt;l1</title>
<path fill="none" stroke="black" d="M227.07,-201.3C226.12,-191.85 224.95,-180.06 223.94,-170.03"/>
<polygon fill="black" stroke="black" points="227.43,-169.68 222.95,-160.08 220.46,-170.38 227.43,-169.68"/>
</g>
<!-- n6 -->
<g id="node14" class="node">
<title>n6</title>
<ellipse fill="none" stroke="black" cx="291.8" cy="-147.6" rx="41.12" ry="18"/>
<text text-anchor="middle" x="291.8" y="-142.55" font-family="Times,serif" font-size="14.00">96 (S 1)</text>
</g>
<!-- n3&#45;&gt;n6 -->
<g id="edge6" class="edge">
<title>n3&#45;&gt;n6</title>
<path fill="none" stroke="black" d="M243.41,-202.36C251.2,-193.71 260.95,-182.87 269.66,-173.2"/>
<polygon fill="black" stroke="black" points="272.17,-175.65 276.25,-165.87 266.96,-170.96 272.17,-175.65"/>
</g>
<!-- n4&#45;&gt;l2 -->
<g id="edge7" class="edge">
<title>n4&#45;&gt;l2</title>
<path fill="none" stroke="black" d="M35.81,-129.65C31.05,-119.55 24.98,-106.69 20.02,-96.15"/>
<polygon fill="black" stroke="black" points="23.25,-94.8 15.82,-87.25 16.92,-97.79 23.25,-94.8"/>
</g>
<!-- n4&#45;&gt;l3 -->
<g id="edge8" class="edge">
<title>n4&#45;&gt;l3</title>
<path fill="none" stroke="black" d="M45.53,-129.3C46.48,-119.85 47.65,-108.06 48.66,-98.03"/>
<polygon fill="black" stroke="black" points="52.14,-98.38 49.65,-88.08 45.17,-97.68 52.14,-98.38"/>
</g>
<!-- n5&#45;&gt;l4 -->
<g id="edge10" class="edge">
<title>n5&#45;&gt;l4</title>
<path fill="none" stroke="black" d="M154.64,-130.36C165.03,-119.01 178.84,-103.9 189.17,-92.6"/>
<polygon fill="black" stroke="black" points="191.7,-95.02 195.87,-85.27 186.54,-90.29 191.7,-95.02"/>
</g>
<!-- n7 -->
<g id="node15" class="node">
<title>n7</title>
<ellipse fill="none" stroke="black" cx="133.8" cy="-75.6" rx="41.12" ry="18"/>
<text text-anchor="middle" x="133.8" y="-70.55" font-family="Times,serif" font-size="14.00">26 (S 1)</text>
</g>
<!-- n5&#45;&gt;n7 -->
<g id="edge9" class="edge">
<title>n5&#45;&gt;n7</title>
<path fill="none" stroke="black" d="M138.32,-129.3C137.69,-122.01 136.95,-113.33 136.25,-105.14"/>
<polygon fill="black" stroke="black" points="139.74,-104.88 135.4,-95.21 132.76,-105.47 139.74,-104.88"/>
</g>
<!-- n6&#45;&gt;l5 -->
<g id="edge11" class="edge">
<title>n6&#45;&gt;l5</title>
<path fill="none" stroke="black" d="M283.81,-129.65C279.05,-119.55 272.98,-106.69 268.02,-96.15"/>
<polygon fill="black" stroke="black" points="271.25,-94.8 263.82,-87.25 264.92,-97.79 271.25,-94.8"/>
</g>
<!-- n6&#45;&gt;l6 -->
<g id="edge12" class="edge">
<title>n6&#45;&gt;l6</title>
<path fill="none" stroke="black" d="M293.53,-129.3C294.48,-119.85 295.65,-108.06 296.66,-98.03"/>
<polygon fill="black" stroke="black" points="300.14,-98.38 297.65,-88.08 293.17,-97.68 300.14,-98.38"/>
</g>
<!-- n7&#45;&gt;l7 -->
<g id="edge13" class="edge">
<title>n7&#45;&gt;l7</title>
<path fill="none" stroke="black" d="M128.33,-57.44C125.85,-49.63 122.89,-40.33 120.29,-32.17"/>
<polygon fill="black" stroke="black" points="123.67,-31.25 117.3,-22.78 117,-33.37 123.67,-31.25"/>
</g>
<!-- n7&#45;&gt;l8 -->
<g id="edge14" class="edge">
<title>n7&#45;&gt;l8</title>
<path fill="none" stroke="black" d="M139.27,-57.44C141.75,-49.63 144.71,-40.33 147.31,-32.17"/>
<polygon fill="black" stroke="black" points="150.6,-33.37 150.3,-22.78 143.93,-31.25 150.6,-33.37"/>
</g>
</g>
</svg>
