<?xml version="1.0" encoding="UTF-8" standalone="no"?>
<!DOCTYPE svg PUBLIC "-//W3C//DTD SVG 1.1//EN"
 "http://www.w3.org/Graphics/SVG/1.1/DTD/svg11.dtd">
<!-- Generated by graphviz version 9.0.0 (20230911.1827)
 -->
<!-- Title: tree Pages: 1 -->
<svg width="81pt" height="102pt"
 viewBox="0.00 0.00 81.02 101.60" xmlns="http://www.w3.org/2000/svg" xmlns:xlink="http://www.w3.org/1999/xlink">
<g id="graph0" class="graph" transform="scale(1 1) rotate(0) translate(4 97.6)">
<title>tree</title>
<polygon fill="white" stroke="none" points="-4,4 -4,-97.6 77.02,-97.6 77.02,4 -4,4"/>
<!-- l1 -->
<g id="node1" class="node">
<title>l1</title>
<ellipse fill="blue" stroke="blue" cx="16.51" cy="-10.8" rx="10.8" ry="10.8"/>
</g>
<!-- l2 -->
<g id="node2" class="node">
<title>l2</title>
<ellipse fill="blue" stroke="blue" cx="56.51" cy="-10.8" rx="10.8" ry="10.8"/>
</g>
<!-- n1 -->
<g id="node3" class="node">
<title>n1</title>
<ellipse fill="none" stroke="black" cx="36.51" cy="-75.6" rx="36.51" ry="18"/>
<text text-anchor="middle" x="36.51" y="-70.55" font-family="Times,serif" font-size="14.00">2 (S 1)</text>
</g>
<!-- n1&#45;&gt;l1 -->
<g id="edge1" class="edge">
<title>n1&#45;&gt;l1</title>
<path fill="none" stroke="black" d="M31.04,-57.44C28.56,-49.63 25.6,-40.33 23,-32.17"/>
<polygon fill="black" stroke="black" points="26.38,-31.25 20.01,-22.78 19.71,-33.37 26.38,-31.25"/>
</g>
<!-- n1&#45;&gt;l2 -->
<g id="edge2" class="edge">
<title>n1&#45;&gt;l2</title>
<path fill="none" stroke="black" d="M41.97,-57.44C44.46,-49.63 47.42,-40.33 50.02,-32.17"/>
<polygon fill="black" stroke="black" points="53.31,-33.37 53.01,-22.78 46.64,-31.25 53.31,-33.37"/>
</g>
</g>
</svg>
