<?xml version="1.0" encoding="UTF-8" standalone="no"?>
<!DOCTYPE svg PUBLIC "-//W3C//DTD SVG 1.1//EN"
 "http://www.w3.org/Graphics/SVG/1.1/DTD/svg11.dtd">
<!-- Generated by graphviz version 9.0.0 (20230911.1827)
 -->
<!-- Title: tree Pages: 1 -->
<svg width="366pt" height="462pt"
 viewBox="0.00 0.00 365.60 461.60" xmlns="http://www.w3.org/2000/svg" xmlns:xlink="http://www.w3.org/1999/xlink">
<g id="graph0" class="graph" transform="scale(1 1) rotate(0) translate(4 457.6)">
<title>tree</title>
<polygon fill="white" stroke="none" points="-4,4 -4,-457.6 361.6,-457.6 361.6,4 -4,4"/>
<!-- l1 -->
<g id="node1" class="node">
<title>l1</title>
<ellipse fill="blue" stroke="blue" cx="237.8" cy="-291.6" rx="10.8" ry="10.8"/>
</g>
<!-- l2 -->
<g id="node2" class="node">
<title>l2</title>
<ellipse fill="blue" stroke="blue" cx="10.8" cy="-219.6" rx="10.8" ry="10.8"/>
</g>
<!-- l3 -->
<g id="node3" class="node">
<title>l3</title>
<ellipse fill="blue" stroke="blue" cx="50.8" cy="-219.6" rx="10.8" ry="10.8"/>
</g>
<!-- l4 -->
<g id="node4" class="node">
<title>l4</title>
<ellipse fill="blue" stroke="blue" cx="306.8" cy="-219.6" rx="10.8" ry="10.8"/>
</g>
<!-- l5 -->
<g id="node5" class="node">
<title>l5</title>
<ellipse fill="blue" stroke="blue" cx="346.8" cy="-219.6" rx="10.8" ry="10.8"/>
</g>
<!-- l6 -->
<g id="node6" class="node">
<title>l6</title>
<ellipse fill="blue" stroke="blue" cx="139.8" cy="-147.6" rx="10.8" ry="10.8"/>
</g>
<!-- l7 -->
<g id="node7" class="node">
<title>l7</title>
<ellipse fill="blue" stroke="blue" cx="294.8" cy="-147.6" rx="10.8" ry="10.8"/>
</g>
<!-- l8 -->
<g id="node8" class="node">
<title>l8</title>
<ellipse fill="blue" stroke="blue" cx="29.8" cy="-75.6" rx="10.8" ry="10.8"/>
</g>
<!-- l9 -->
<g id="node9" class="node">
<title>l9</title>
<ellipse fill="blue" stroke="blue" cx="204.8" cy="-75.6" rx="10.8" ry="10.8"/>
</g>
<!-- l10 -->
<g id="node10" class="node">
<title>l10</title>
<ellipse fill="blue" stroke="blue" cx="244.8" cy="-75.6" rx="10.8" ry="10.8"/>
</g>
<!-- l11 -->
<g id="node11" class="node">
<title>l11</title>
<ellipse fill="blue" stroke="blue" cx="79.8" cy="-10.8" rx="10.8" ry="10.8"/>
</g>
<!-- l12 -->
<g id="node12" class="node">
<title>l12</title>
<ellipse fill="blue" stroke="blue" cx="119.8" cy="-10.8" rx="10.8" ry="10.8"/>
</g>
<!-- n1 -->
<g id="node13" class="node">
<title>n1</title>
<ellipse fill="none" stroke="black" cx="190.8" cy="-435.6" rx="45.72" ry="18"/>
<text text-anchor="middle" x="190.8" y="-430.55" font-family="Times,serif" font-size="14.00">66 (S 11)</text>
</g>
<!-- n2 -->
<g id="node14" class="node">
<title>n2</title>
<ellipse fill="none" stroke="black" cx="142.8" cy="-363.6" rx="36.51" ry="18"/>
<text text-anchor="middle" x="142.8" y="-358.55" font-family="Times,serif" font-size="14.00">7 (S 8)</text>
</g>
<!-- n1&#45;&gt;n2 -->
<g id="edge1" class="edge">
<title>n1&#45;&gt;n2</title>
<path fill="none" stroke="black" d="M179.42,-418.01C173.81,-409.82 166.9,-399.74 160.6,-390.55"/>
<polygon fill="black" stroke="black" points="163.49,-388.59 154.95,-382.32 157.72,-392.54 163.49,-388.59"/>
</g>
<!-- n3 -->
<g id="node15" class="node">
<title>n3</title>
<ellipse fill="none" stroke="black" cx="238.8" cy="-363.6" rx="41.12" ry="18"/>
<text text-anchor="middle" x="238.8" y="-358.55" font-family="Times,serif" font-size="14.00">85 (S 2)</text>
</g>
<!-- n1&#45;&gt;n3 -->
<g id="edge2" class="edge">
<title>n1&#45;&gt;n3</title>
<path fill="none" stroke="black" d="M202.18,-418.01C207.79,-409.82 214.7,-399.74 221,-390.55"/>
<polygon fill="black" stroke="black" points="223.88,-392.54 226.65,-382.32 218.11,-388.59 223.88,-392.54"/>
</g>
<!-- n4 -->
<g id="node16" class="node">
<title>n4</title>
<ellipse fill="none" stroke="black" cx="49.8" cy="-291.6" rx="36.51" ry="18"/>
<text text-anchor="middle" x="49.8" y="-286.55" font-family="Times,serif" font-size="14.00">2 (S 1)</text>
</g>
<!-- n2&#45;&gt;n4 -->
<g id="edge3" class="edge">
<title>n2&#45;&gt;n4</title>
<path fill="none" stroke="black" d="M123.53,-348.1C110.44,-338.24 92.9,-325.04 78.21,-313.98"/>
<polygon fill="black" stroke="black" points="80.35,-311.21 70.25,-308 76.14,-316.81 80.35,-311.21"/>
</g>
<!-- n5 -->
<g id="node17" class="node">
<title>n5</title>
<ellipse fill="none" stroke="black" cx="145.8" cy="-291.6" rx="41.12" ry="18"/>
<text text-anchor="middle" x="145.8" y="-286.55" font-family="Times,serif" font-size="14.00">36 (S 6)</text>
</g>
<!-- n2&#45;&gt;n5 -->
<g id="edge4" class="edge">
<title>n2&#45;&gt;n5</title>
<path fill="none" stroke="black" d="M143.54,-345.3C143.85,-338.01 144.23,-329.33 144.58,-321.14"/>
<polygon fill="black" stroke="black" points="148.07,-321.36 145,-311.22 141.08,-321.06 148.07,-321.36"/>
</g>
<!-- n3&#45;&gt;l1 -->
<g id="edge5" class="edge">
<title>n3&#45;&gt;l1</title>
<path fill="none" stroke="black" d="M238.55,-345.3C238.42,-335.85 238.25,-324.06 238.11,-314.03"/>
<polygon fill="black" stroke="black" points="241.61,-314.04 237.96,-304.09 234.61,-314.14 241.61,-314.04"/>
</g>
<!-- n6 -->
<g id="node18" class="node">
<title>n6</title>
<ellipse fill="none" stroke="black" cx="307.8" cy="-291.6" rx="41.12" ry="18"/>
<text text-anchor="middle" x="307.8" y="-286.55" font-family="Times,serif" font-size="14.00">96 (S 1)</text>
</g>
<!-- n3&#45;&gt;n6 -->
<g id="edge6" class="edge">
<title>n3&#45;&gt;n6</title>
<path fill="none" stroke="black" d="M254.46,-346.72C263.28,-337.77 274.47,-326.41 284.33,-316.41"/>
<polygon fill="black" stroke="black" points="286.61,-319.08 291.14,-309.5 281.63,-314.16 286.61,-319.08"/>
</g>
<!-- n4&#45;&gt;l2 -->
<g id="edge7" class="edge">
<title>n4&#45;&gt;l2</title>
<path fill="none" stroke="black" d="M40.56,-274.01C34.81,-263.69 27.39,-250.38 21.4,-239.63"/>
<polygon fill="black" stroke="black" points="24.47,-237.94 16.54,-230.91 18.35,-241.35 24.47,-237.94"/>
</g>
<!-- n4&#45;&gt;l3 -->
<g id="edge8" class="edge">
<title>n4&#45;&gt;l3</title>
<path fill="none" stroke="black" d="M50.05,-273.3C50.18,-263.85 50.35,-252.06 50.49,-242.03"/>
<polygon fill="black" stroke="black" points="53.99,-242.14 50.64,-232.09 46.99,-242.04 53.99,-242.14"/>
</g>
<!-- n7 -->
<g id="node19" class="node">
<title>n7</title>
<ellipse fill="none" stroke="black" cx="131.8" cy="-219.6" rx="41.12" ry="18"/>
<text text-anchor="middle" x="131.8" y="-214.55" font-family="Times,serif" font-size="14.00">26 (S 3)</text>
</g>
<!-- n5&#45;&gt;n7 -->
<g id="edge9" class="edge">
<title>n5&#45;&gt;n7</title>
<path fill="none" stroke="black" d="M142.34,-273.3C140.86,-265.92 139.1,-257.12 137.45,-248.85"/>
<polygon fill="black" stroke="black" points="140.91,-248.31 135.52,-239.19 134.05,-249.68 140.91,-248.31"/>
</g>
<!-- n8 -->
<g id="node20" class="node">
<title>n8</title>
<ellipse fill="none" stroke="black" cx="231.8" cy="-219.6" rx="41.12" ry="18"/>
<text text-anchor="middle" x="231.8" y="-214.55" font-family="Times,serif" font-size="14.00">62 (S 2)</text>
</g>
<!-- n5&#45;&gt;n8 -->
<g id="edge10" class="edge">
<title>n5&#45;&gt;n8</title>
<path fill="none" stroke="black" d="M164.46,-275.41C176.1,-265.94 191.29,-253.57 204.29,-242.99"/>
<polygon fill="black" stroke="black" points="206.16,-245.98 211.7,-236.96 201.74,-240.55 206.16,-245.98"/>
</g>
<!-- n6&#45;&gt;l4 -->
<g id="edge11" class="edge">
<title>n6&#45;&gt;l4</title>
<path fill="none" stroke="black" d="M307.55,-273.3C307.42,-263.85 307.25,-252.06 307.11,-242.03"/>
<polygon fill="black" stroke="black" points="310.61,-242.04 306.96,-232.09 303.61,-242.14 310.61,-242.04"/>
</g>
<!-- n6&#45;&gt;l5 -->
<g id="edge12" class="edge">
<title>n6&#45;&gt;l5</title>
<path fill="none" stroke="black" d="M317.24,-273.65C323,-263.32 330.36,-250.1 336.3,-239.44"/>
<polygon fill="black" stroke="black" points="339.3,-241.25 341.11,-230.81 333.18,-237.85 339.3,-241.25"/>
</g>
<!-- n7&#45;&gt;l6 -->
<g id="edge14" class="edge">
<title>n7&#45;&gt;l6</title>
<path fill="none" stroke="black" d="M133.78,-201.3C134.87,-191.74 136.23,-179.8 137.39,-169.7"/>
<polygon fill="black" stroke="black" points="140.83,-170.41 138.49,-160.08 133.88,-169.62 140.83,-170.41"/>
</g>
<!-- n9 -->
<g id="node21" class="node">
<title>n9</title>
<ellipse fill="none" stroke="black" cx="69.8" cy="-147.6" rx="41.12" ry="18"/>
<text text-anchor="middle" x="69.8" y="-142.55" font-family="Times,serif" font-size="14.00">12 (S 2)</text>
</g>
<!-- n7&#45;&gt;n9 -->
<g id="edge13" class="edge">
<title>n7&#45;&gt;n9</title>
<path fill="none" stroke="black" d="M117.42,-202.36C109.75,-193.71 100.16,-182.87 91.59,-173.2"/>
<polygon fill="black" stroke="black" points="94.36,-171.05 85.11,-165.88 89.12,-175.69 94.36,-171.05"/>
</g>
<!-- n8&#45;&gt;l7 -->
<g id="edge16" class="edge">
<title>n8&#45;&gt;l7</title>
<path fill="none" stroke="black" d="M246.41,-202.36C256.64,-191.01 270.23,-175.9 280.4,-164.6"/>
<polygon fill="black" stroke="black" points="282.9,-167.06 286.99,-157.28 277.69,-162.37 282.9,-167.06"/>
</g>
<!-- n10 -->
<g id="node22" class="node">
<title>n10</title>
<ellipse fill="none" stroke="black" cx="224.8" cy="-147.6" rx="41.12" ry="18"/>
<text text-anchor="middle" x="224.8" y="-142.55" font-family="Times,serif" font-size="14.00">38 (S 1)</text>
</g>
<!-- n8&#45;&gt;n10 -->
<g id="edge15" class="edge">
<title>n8&#45;&gt;n10</title>
<path fill="none" stroke="black" d="M230.07,-201.3C229.34,-194.01 228.47,-185.33 227.65,-177.14"/>
<polygon fill="black" stroke="black" points="231.14,-176.81 226.66,-167.21 224.17,-177.51 231.14,-176.81"/>
</g>
<!-- n9&#45;&gt;l8 -->
<g id="edge17" class="edge">
<title>n9&#45;&gt;l8</title>
<path fill="none" stroke="black" d="M60.12,-129.65C54.21,-119.32 46.66,-106.1 40.57,-95.44"/>
<polygon fill="black" stroke="black" points="43.63,-93.75 35.63,-86.81 37.55,-97.23 43.63,-93.75"/>
</g>
<!-- n11 -->
<g id="node23" class="node">
<title>n11</title>
<ellipse fill="none" stroke="black" cx="99.8" cy="-75.6" rx="41.12" ry="18"/>
<text text-anchor="middle" x="99.8" y="-70.55" font-family="Times,serif" font-size="14.00">14 (S 1)</text>
</g>
<!-- n9&#45;&gt;n11 -->
<g id="edge18" class="edge">
<title>n9&#45;&gt;n11</title>
<path fill="none" stroke="black" d="M77.06,-129.65C80.38,-121.92 84.39,-112.56 88.11,-103.87"/>
<polygon fill="black" stroke="black" points="91.29,-105.35 92.01,-94.78 84.85,-102.59 91.29,-105.35"/>
</g>
<!-- n10&#45;&gt;l9 -->
<g id="edge19" class="edge">
<title>n10&#45;&gt;l9</title>
<path fill="none" stroke="black" d="M219.86,-129.3C217.06,-119.52 213.55,-107.24 210.63,-97"/>
<polygon fill="black" stroke="black" points="214.06,-96.29 207.95,-87.63 207.33,-98.21 214.06,-96.29"/>
</g>
<!-- n10&#45;&gt;l10 -->
<g id="edge20" class="edge">
<title>n10&#45;&gt;l10</title>
<path fill="none" stroke="black" d="M229.74,-129.3C232.54,-119.52 236.05,-107.24 238.97,-97"/>
<polygon fill="black" stroke="black" points="242.27,-98.21 241.65,-87.63 235.54,-96.29 242.27,-98.21"/>
</g>
<!-- n11&#45;&gt;l11 -->
<g id="edge21" class="edge">
<title>n11&#45;&gt;l11</title>
<path fill="none" stroke="black" d="M94.33,-57.44C91.85,-49.63 88.89,-40.33 86.29,-32.17"/>
<polygon fill="black" stroke="black" points="89.67,-31.25 83.3,-22.78 83,-33.37 89.67,-31.25"/>
</g>
<!-- n11&#45;&gt;l12 -->
<g id="edge22" class="edge">
<title>n11&#45;&gt;l12</title>
<path fill="none" stroke="black" d="M105.27,-57.44C107.75,-49.63 110.71,-40.33 113.31,-32.17"/>
<polygon fill="black" stroke="black" points="116.6,-33.37 116.3,-22.78 109.93,-31.25 116.6,-33.37"/>
</g>
</g>
</svg>
