<?xml version="1.0" encoding="UTF-8" standalone="no"?>
<!DOCTYPE svg PUBLIC "-//W3C//DTD SVG 1.1//EN"
 "http://www.w3.org/Graphics/SVG/1.1/DTD/svg11.dtd">
<!-- Generated by graphviz version 9.0.0 (20230911.1827)
 -->
<!-- Title: tree Pages: 1 -->
<svg width="130pt" height="174pt"
 viewBox="0.00 0.00 129.92 173.60" xmlns="http://www.w3.org/2000/svg" xmlns:xlink="http://www.w3.org/1999/xlink">
<g id="graph0" class="graph" transform="scale(1 1) rotate(0) translate(4 169.6)">
<title>tree</title>
<polygon fill="white" stroke="none" points="-4,4 -4,-169.6 125.92,-169.6 125.92,4 -4,4"/>
<!-- l1 -->
<g id="node1" class="node">
<title>l1</title>
<ellipse fill="blue" stroke="blue" cx="10.8" cy="-75.6" rx="10.8" ry="10.8"/>
</g>
<!-- l2 -->
<g id="node2" class="node">
<title>l2</title>
<ellipse fill="blue" stroke="blue" cx="60.8" cy="-10.8" rx="10.8" ry="10.8"/>
</g>
<!-- l3 -->
<g id="node3" class="node">
<title>l3</title>
<ellipse fill="blue" stroke="blue" cx="100.8" cy="-10.8" rx="10.8" ry="10.8"/>
</g>
<!-- n1 -->
<g id="node4" class="node">
<title>n1</title>
<ellipse fill="none" stroke="black" cx="45.8" cy="-147.6" rx="36.51" ry="18"/>
<text text-anchor="middle" x="45.8" y="-142.55" font-family="Times,serif" font-size="14.00">2 (S 2)</text>
</g>
<!-- n1&#45;&gt;l1 -->
<g id="edge1" class="edge">
<title>n1&#45;&gt;l1</title>
<path fill="none" stroke="black" d="M37.33,-129.65C32.28,-119.55 25.84,-106.69 20.58,-96.15"/>
<polygon fill="black" stroke="black" points="23.72,-94.61 16.12,-87.24 17.46,-97.75 23.72,-94.61"/>
</g>
<!-- n2 -->
<g id="node5" class="node">
<title>n2</title>
<ellipse fill="none" stroke="black" cx="80.8" cy="-75.6" rx="41.12" ry="18"/>
<text text-anchor="middle" x="80.8" y="-70.55" font-family="Times,serif" font-size="14.00">66 (S 1)</text>
</g>
<!-- n1&#45;&gt;n2 -->
<g id="edge2" class="edge">
<title>n1&#45;&gt;n2</title>
<path fill="none" stroke="black" d="M54.27,-129.65C58.18,-121.83 62.93,-112.35 67.31,-103.58"/>
<polygon fill="black" stroke="black" points="70.39,-105.25 71.73,-94.74 64.13,-102.12 70.39,-105.25"/>
</g>
<!-- n2&#45;&gt;l2 -->
<g id="edge3" class="edge">
<title>n2&#45;&gt;l2</title>
<path fill="none" stroke="black" d="M75.33,-57.44C72.85,-49.63 69.89,-40.33 67.29,-32.17"/>
<polygon fill="black" stroke="black" points="70.67,-31.25 64.3,-22.78 64,-33.37 70.67,-31.25"/>
</g>
<!-- n2&#45;&gt;l3 -->
<g id="edge4" class="edge">
<title>n2&#45;&gt;l3</title>
<path fill="none" stroke="black" d="M86.27,-57.44C88.75,-49.63 91.71,-40.33 94.31,-32.17"/>
<polygon fill="black" stroke="black" points="97.6,-33.37 97.3,-22.78 90.93,-31.25 97.6,-33.37"/>
</g>
</g>
</svg>
