<?xml version="1.0" encoding="UTF-8" standalone="no"?>
<!DOCTYPE svg PUBLIC "-//W3C//DTD SVG 1.1//EN"
 "http://www.w3.org/Graphics/SVG/1.1/DTD/svg11.dtd">
<!-- Generated by graphviz version 9.0.0 (20230911.1827)
 -->
<!-- Title: tree Pages: 1 -->
<svg width="135pt" height="246pt"
 viewBox="0.00 0.00 134.60 245.60" xmlns="http://www.w3.org/2000/svg" xmlns:xlink="http://www.w3.org/1999/xlink">
<g id="graph0" class="graph" transform="scale(1 1) rotate(0) translate(4 241.6)">
<title>tree</title>
<polygon fill="white" stroke="none" points="-4,4 -4,-241.6 130.6,-241.6 130.6,4 -4,4"/>
<!-- l1 -->
<g id="node1" class="node">
<title>l1</title>
<ellipse fill="blue" stroke="blue" cx="10.8" cy="-147.6" rx="10.8" ry="10.8"/>
</g>
<!-- l2 -->
<g id="node2" class="node">
<title>l2</title>
<ellipse fill="blue" stroke="blue" cx="115.8" cy="-75.6" rx="10.8" ry="10.8"/>
</g>
<!-- l3 -->
<g id="node3" class="node">
<title>l3</title>
<ellipse fill="blue" stroke="blue" cx="25.8" cy="-10.8" rx="10.8" ry="10.8"/>
</g>
<!-- l4 -->
<g id="node4" class="node">
<title>l4</title>
<ellipse fill="blue" stroke="blue" cx="65.8" cy="-10.8" rx="10.8" ry="10.8"/>
</g>
<!-- n1 -->
<g id="node5" class="node">
<title>n1</title>
<ellipse fill="none" stroke="black" cx="45.8" cy="-219.6" rx="36.51" ry="18"/>
<text text-anchor="middle" x="45.8" y="-214.55" font-family="Times,serif" font-size="14.00">2 (S 3)</text>
</g>
<!-- n1&#45;&gt;l1 -->
<g id="edge1" class="edge">
<title>n1&#45;&gt;l1</title>
<path fill="none" stroke="black" d="M37.33,-201.65C32.28,-191.55 25.84,-178.69 20.58,-168.15"/>
<polygon fill="black" stroke="black" points="23.72,-166.61 16.12,-159.24 17.46,-169.75 23.72,-166.61"/>
</g>
<!-- n2 -->
<g id="node6" class="node">
<title>n2</title>
<ellipse fill="none" stroke="black" cx="80.8" cy="-147.6" rx="41.12" ry="18"/>
<text text-anchor="middle" x="80.8" y="-142.55" font-family="Times,serif" font-size="14.00">66 (S 2)</text>
</g>
<!-- n1&#45;&gt;n2 -->
<g id="edge2" class="edge">
<title>n1&#45;&gt;n2</title>
<path fill="none" stroke="black" d="M54.27,-201.65C58.18,-193.83 62.93,-184.35 67.31,-175.58"/>
<polygon fill="black" stroke="black" points="70.39,-177.25 71.73,-166.74 64.13,-174.12 70.39,-177.25"/>
</g>
<!-- n2&#45;&gt;l2 -->
<g id="edge4" class="edge">
<title>n2&#45;&gt;l2</title>
<path fill="none" stroke="black" d="M89.27,-129.65C94.32,-119.55 100.76,-106.69 106.02,-96.15"/>
<polygon fill="black" stroke="black" points="109.14,-97.75 110.48,-87.24 102.88,-94.61 109.14,-97.75"/>
</g>
<!-- n3 -->
<g id="node7" class="node">
<title>n3</title>
<ellipse fill="none" stroke="black" cx="45.8" cy="-75.6" rx="41.12" ry="18"/>
<text text-anchor="middle" x="45.8" y="-70.55" font-family="Times,serif" font-size="14.00">36 (S 1)</text>
</g>
<!-- n2&#45;&gt;n3 -->
<g id="edge3" class="edge">
<title>n2&#45;&gt;n3</title>
<path fill="none" stroke="black" d="M72.33,-129.65C68.42,-121.83 63.67,-112.35 59.29,-103.58"/>
<polygon fill="black" stroke="black" points="62.47,-102.12 54.87,-94.74 56.21,-105.25 62.47,-102.12"/>
</g>
<!-- n3&#45;&gt;l3 -->
<g id="edge5" class="edge">
<title>n3&#45;&gt;l3</title>
<path fill="none" stroke="black" d="M40.33,-57.44C37.85,-49.63 34.89,-40.33 32.29,-32.17"/>
<polygon fill="black" stroke="black" points="35.67,-31.25 29.3,-22.78 29,-33.37 35.67,-31.25"/>
</g>
<!-- n3&#45;&gt;l4 -->
<g id="edge6" class="edge">
<title>n3&#45;&gt;l4</title>
<path fill="none" stroke="black" d="M51.27,-57.44C53.75,-49.63 56.71,-40.33 59.31,-32.17"/>
<polygon fill="black" stroke="black" points="62.6,-33.37 62.3,-22.78 55.93,-31.25 62.6,-33.37"/>
</g>
</g>
</svg>
