<?xml version="1.0" encoding="UTF-8" standalone="no"?>
<!DOCTYPE svg PUBLIC "-//W3C//DTD SVG 1.1//EN"
 "http://www.w3.org/Graphics/SVG/1.1/DTD/svg11.dtd">
<!-- Generated by graphviz version 9.0.0 (20230911.1827)
 -->
<!-- Title: tree Pages: 1 -->
<svg width="341pt" height="390pt"
 viewBox="0.00 0.00 340.92 389.60" xmlns="http://www.w3.org/2000/svg" xmlns:xlink="http://www.w3.org/1999/xlink">
<g id="graph0" class="graph" transform="scale(1 1) rotate(0) translate(4 385.6)">
<title>tree</title>
<polygon fill="white" stroke="none" points="-4,4 -4,-385.6 336.92,-385.6 336.92,4 -4,4"/>
<!-- l1 -->
<g id="node1" class="node">
<title>l1</title>
<ellipse fill="blue" stroke="blue" cx="221.8" cy="-219.6" rx="10.8" ry="10.8"/>
</g>
<!-- l2 -->
<g id="node2" class="node">
<title>l2</title>
<ellipse fill="blue" stroke="blue" cx="10.8" cy="-147.6" rx="10.8" ry="10.8"/>
</g>
<!-- l3 -->
<g id="node3" class="node">
<title>l3</title>
<ellipse fill="blue" stroke="blue" cx="50.8" cy="-147.6" rx="10.8" ry="10.8"/>
</g>
<!-- l4 -->
<g id="node4" class="node">
<title>l4</title>
<ellipse fill="blue" stroke="blue" cx="203.8" cy="-147.6" rx="10.8" ry="10.8"/>
</g>
<!-- l5 -->
<g id="node5" class="node">
<title>l5</title>
<ellipse fill="blue" stroke="blue" cx="258.8" cy="-147.6" rx="10.8" ry="10.8"/>
</g>
<!-- l6 -->
<g id="node6" class="node">
<title>l6</title>
<ellipse fill="blue" stroke="blue" cx="298.8" cy="-147.6" rx="10.8" ry="10.8"/>
</g>
<!-- l7 -->
<g id="node7" class="node">
<title>l7</title>
<ellipse fill="blue" stroke="blue" cx="168.8" cy="-75.6" rx="10.8" ry="10.8"/>
</g>
<!-- l8 -->
<g id="node8" class="node">
<title>l8</title>
<ellipse fill="blue" stroke="blue" cx="78.8" cy="-10.8" rx="10.8" ry="10.8"/>
</g>
<!-- l9 -->
<g id="node9" class="node">
<title>l9</title>
<ellipse fill="blue" stroke="blue" cx="118.8" cy="-10.8" rx="10.8" ry="10.8"/>
</g>
<!-- n1 -->
<g id="node10" class="node">
<title>n1</title>
<ellipse fill="none" stroke="black" cx="180.8" cy="-363.6" rx="41.12" ry="18"/>
<text text-anchor="middle" x="180.8" y="-358.55" font-family="Times,serif" font-size="14.00">66 (S 8)</text>
</g>
<!-- n2 -->
<g id="node11" class="node">
<title>n2</title>
<ellipse fill="none" stroke="black" cx="132.8" cy="-291.6" rx="36.51" ry="18"/>
<text text-anchor="middle" x="132.8" y="-286.55" font-family="Times,serif" font-size="14.00">7 (S 5)</text>
</g>
<!-- n1&#45;&gt;n2 -->
<g id="edge1" class="edge">
<title>n1&#45;&gt;n2</title>
<path fill="none" stroke="black" d="M169.42,-346.01C163.81,-337.82 156.9,-327.74 150.6,-318.55"/>
<polygon fill="black" stroke="black" points="153.49,-316.59 144.95,-310.32 147.72,-320.54 153.49,-316.59"/>
</g>
<!-- n3 -->
<g id="node12" class="node">
<title>n3</title>
<ellipse fill="none" stroke="black" cx="228.8" cy="-291.6" rx="41.12" ry="18"/>
<text text-anchor="middle" x="228.8" y="-286.55" font-family="Times,serif" font-size="14.00">85 (S 2)</text>
</g>
<!-- n1&#45;&gt;n3 -->
<g id="edge2" class="edge">
<title>n1&#45;&gt;n3</title>
<path fill="none" stroke="black" d="M192.18,-346.01C197.79,-337.82 204.7,-327.74 211,-318.55"/>
<polygon fill="black" stroke="black" points="213.88,-320.54 216.65,-310.32 208.11,-316.59 213.88,-320.54"/>
</g>
<!-- n4 -->
<g id="node13" class="node">
<title>n4</title>
<ellipse fill="none" stroke="black" cx="43.8" cy="-219.6" rx="36.51" ry="18"/>
<text text-anchor="middle" x="43.8" y="-214.55" font-family="Times,serif" font-size="14.00">2 (S 1)</text>
</g>
<!-- n2&#45;&gt;n4 -->
<g id="edge3" class="edge">
<title>n2&#45;&gt;n4</title>
<path fill="none" stroke="black" d="M113.93,-275.75C101.65,-266.1 85.44,-253.35 71.69,-242.54"/>
<polygon fill="black" stroke="black" points="73.86,-239.79 63.84,-236.36 69.53,-245.29 73.86,-239.79"/>
</g>
<!-- n5 -->
<g id="node14" class="node">
<title>n5</title>
<ellipse fill="none" stroke="black" cx="139.8" cy="-219.6" rx="41.12" ry="18"/>
<text text-anchor="middle" x="139.8" y="-214.55" font-family="Times,serif" font-size="14.00">36 (S 3)</text>
</g>
<!-- n2&#45;&gt;n5 -->
<g id="edge4" class="edge">
<title>n2&#45;&gt;n5</title>
<path fill="none" stroke="black" d="M134.53,-273.3C135.26,-266.01 136.13,-257.33 136.95,-249.14"/>
<polygon fill="black" stroke="black" points="140.43,-249.51 137.94,-239.21 133.46,-248.81 140.43,-249.51"/>
</g>
<!-- n3&#45;&gt;l1 -->
<g id="edge5" class="edge">
<title>n3&#45;&gt;l1</title>
<path fill="none" stroke="black" d="M227.07,-273.3C226.12,-263.85 224.95,-252.06 223.94,-242.03"/>
<polygon fill="black" stroke="black" points="227.43,-241.68 222.95,-232.08 220.46,-242.38 227.43,-241.68"/>
</g>
<!-- n6 -->
<g id="node15" class="node">
<title>n6</title>
<ellipse fill="none" stroke="black" cx="291.8" cy="-219.6" rx="41.12" ry="18"/>
<text text-anchor="middle" x="291.8" y="-214.55" font-family="Times,serif" font-size="14.00">96 (S 1)</text>
</g>
<!-- n3&#45;&gt;n6 -->
<g id="edge6" class="edge">
<title>n3&#45;&gt;n6</title>
<path fill="none" stroke="black" d="M243.41,-274.36C251.2,-265.71 260.95,-254.87 269.66,-245.2"/>
<polygon fill="black" stroke="black" points="272.17,-247.65 276.25,-237.87 266.96,-242.96 272.17,-247.65"/>
</g>
<!-- n4&#45;&gt;l2 -->
<g id="edge7" class="edge">
<title>n4&#45;&gt;l2</title>
<path fill="none" stroke="black" d="M35.81,-201.65C31.05,-191.55 24.98,-178.69 20.02,-168.15"/>
<polygon fill="black" stroke="black" points="23.25,-166.8 15.82,-159.25 16.92,-169.79 23.25,-166.8"/>
</g>
<!-- n4&#45;&gt;l3 -->
<g id="edge8" class="edge">
<title>n4&#45;&gt;l3</title>
<path fill="none" stroke="black" d="M45.53,-201.3C46.48,-191.85 47.65,-180.06 48.66,-170.03"/>
<polygon fill="black" stroke="black" points="52.14,-170.38 49.65,-160.08 45.17,-169.68 52.14,-170.38"/>
</g>
<!-- n5&#45;&gt;l4 -->
<g id="edge10" class="edge">
<title>n5&#45;&gt;l4</title>
<path fill="none" stroke="black" d="M154.64,-202.36C165.03,-191.01 178.84,-175.9 189.17,-164.6"/>
<polygon fill="black" stroke="black" points="191.7,-167.02 195.87,-157.27 186.54,-162.29 191.7,-167.02"/>
</g>
<!-- n7 -->
<g id="node16" class="node">
<title>n7</title>
<ellipse fill="none" stroke="black" cx="133.8" cy="-147.6" rx="41.12" ry="18"/>
<text text-anchor="middle" x="133.8" y="-142.55" font-family="Times,serif" font-size="14.00">26 (S 2)</text>
</g>
<!-- n5&#45;&gt;n7 -->
<g id="edge9" class="edge">
<title>n5&#45;&gt;n7</title>
<path fill="none" stroke="black" d="M138.32,-201.3C137.69,-194.01 136.95,-185.33 136.25,-177.14"/>
<polygon fill="black" stroke="black" points="139.74,-176.88 135.4,-167.21 132.76,-177.47 139.74,-176.88"/>
</g>
<!-- n6&#45;&gt;l5 -->
<g id="edge11" class="edge">
<title>n6&#45;&gt;l5</title>
<path fill="none" stroke="black" d="M283.81,-201.65C279.05,-191.55 272.98,-178.69 268.02,-168.15"/>
<polygon fill="black" stroke="black" points="271.25,-166.8 263.82,-159.25 264.92,-169.79 271.25,-166.8"/>
</g>
<!-- n6&#45;&gt;l6 -->
<g id="edge12" class="edge">
<title>n6&#45;&gt;l6</title>
<path fill="none" stroke="black" d="M293.53,-201.3C294.48,-191.85 295.65,-180.06 296.66,-170.03"/>
<polygon fill="black" stroke="black" points="300.14,-170.38 297.65,-160.08 293.17,-169.68 300.14,-170.38"/>
</g>
<!-- n7&#45;&gt;l7 -->
<g id="edge14" class="edge">
<title>n7&#45;&gt;l7</title>
<path fill="none" stroke="black" d="M142.27,-129.65C147.32,-119.55 153.76,-106.69 159.02,-96.15"/>
<polygon fill="black" stroke="black" points="162.14,-97.75 163.48,-87.24 155.88,-94.61 162.14,-97.75"/>
</g>
<!-- n8 -->
<g id="node17" class="node">
<title>n8</title>
<ellipse fill="none" stroke="black" cx="98.8" cy="-75.6" rx="41.12" ry="18"/>
<text text-anchor="middle" x="98.8" y="-70.55" font-family="Times,serif" font-size="14.00">12 (S 1)</text>
</g>
<!-- n7&#45;&gt;n8 -->
<g id="edge13" class="edge">
<title>n7&#45;&gt;n8</title>
<path fill="none" stroke="black" d="M125.33,-129.65C121.42,-121.83 116.67,-112.35 112.29,-103.58"/>
<polygon fill="black" stroke="black" points="115.47,-102.12 107.87,-94.74 109.21,-105.25 115.47,-102.12"/>
</g>
<!-- n8&#45;&gt;l8 -->
<g id="edge15" class="edge">
<title>n8&#45;&gt;l8</title>
<path fill="none" stroke="black" d="M93.33,-57.44C90.85,-49.63 87.89,-40.33 85.29,-32.17"/>
<polygon fill="black" stroke="black" points="88.67,-31.25 82.3,-22.78 82,-33.37 88.67,-31.25"/>
</g>
<!-- n8&#45;&gt;l9 -->
<g id="edge16" class="edge">
<title>n8&#45;&gt;l9</title>
<path fill="none" stroke="black" d="M104.27,-57.44C106.75,-49.63 109.71,-40.33 112.31,-32.17"/>
<polygon fill="black" stroke="black" points="115.6,-33.37 115.3,-22.78 108.93,-31.25 115.6,-33.37"/>
</g>
</g>
</svg>
