<?xml version="1.0" encoding="UTF-8" standalone="no"?>
<!DOCTYPE svg PUBLIC "-//W3C//DTD SVG 1.1//EN"
 "http://www.w3.org/Graphics/SVG/1.1/DTD/svg11.dtd">
<!-- Generated by graphviz version 9.0.0 (20230911.1827)
 -->
<!-- Title: tree Pages: 1 -->
<svg width="449pt" height="462pt"
 viewBox="0.00 0.00 448.92 461.60" xmlns="http://www.w3.org/2000/svg" xmlns:xlink="http://www.w3.org/1999/xlink">
<g id="graph0" class="graph" transform="scale(1 1) rotate(0) translate(4 457.6)">
<title>tree</title>
<polygon fill="white" stroke="none" points="-4,4 -4,-457.6 444.92,-457.6 444.92,4 -4,4"/>
<!-- l1 -->
<g id="node1" class="node">
<title>l1</title>
<ellipse fill="blue" stroke="blue" cx="329.8" cy="-291.6" rx="10.8" ry="10.8"/>
</g>
<!-- l2 -->
<g id="node2" class="node">
<title>l2</title>
<ellipse fill="blue" stroke="blue" cx="314.8" cy="-219.6" rx="10.8" ry="10.8"/>
</g>
<!-- l3 -->
<g id="node3" class="node">
<title>l3</title>
<ellipse fill="blue" stroke="blue" cx="379.8" cy="-219.6" rx="10.8" ry="10.8"/>
</g>
<!-- l4 -->
<g id="node4" class="node">
<title>l4</title>
<ellipse fill="blue" stroke="blue" cx="419.8" cy="-219.6" rx="10.8" ry="10.8"/>
</g>
<!-- l5 -->
<g id="node5" class="node">
<title>l5</title>
<ellipse fill="blue" stroke="blue" cx="10.8" cy="-147.6" rx="10.8" ry="10.8"/>
</g>
<!-- l6 -->
<g id="node6" class="node">
<title>l6</title>
<ellipse fill="blue" stroke="blue" cx="50.8" cy="-147.6" rx="10.8" ry="10.8"/>
</g>
<!-- l7 -->
<g id="node7" class="node">
<title>l7</title>
<ellipse fill="blue" stroke="blue" cx="198.8" cy="-147.6" rx="10.8" ry="10.8"/>
</g>
<!-- l8 -->
<g id="node8" class="node">
<title>l8</title>
<ellipse fill="blue" stroke="blue" cx="242.8" cy="-147.6" rx="10.8" ry="10.8"/>
</g>
<!-- l9 -->
<g id="node9" class="node">
<title>l9</title>
<ellipse fill="blue" stroke="blue" cx="282.8" cy="-147.6" rx="10.8" ry="10.8"/>
</g>
<!-- l10 -->
<g id="node10" class="node">
<title>l10</title>
<ellipse fill="blue" stroke="blue" cx="93.8" cy="-75.6" rx="10.8" ry="10.8"/>
</g>
<!-- l11 -->
<g id="node11" class="node">
<title>l11</title>
<ellipse fill="blue" stroke="blue" cx="143.8" cy="-10.8" rx="10.8" ry="10.8"/>
</g>
<!-- l12 -->
<g id="node12" class="node">
<title>l12</title>
<ellipse fill="blue" stroke="blue" cx="183.8" cy="-10.8" rx="10.8" ry="10.8"/>
</g>
<!-- n1 -->
<g id="node13" class="node">
<title>n1</title>
<ellipse fill="none" stroke="black" cx="286.8" cy="-435.6" rx="45.72" ry="18"/>
<text text-anchor="middle" x="286.8" y="-430.55" font-family="Times,serif" font-size="14.00">66 (S 11)</text>
</g>
<!-- n2 -->
<g id="node14" class="node">
<title>n2</title>
<ellipse fill="none" stroke="black" cx="236.8" cy="-363.6" rx="41.12" ry="18"/>
<text text-anchor="middle" x="236.8" y="-358.55" font-family="Times,serif" font-size="14.00">36 (S 8)</text>
</g>
<!-- n1&#45;&gt;n2 -->
<g id="edge1" class="edge">
<title>n1&#45;&gt;n2</title>
<path fill="none" stroke="black" d="M274.95,-418.01C269.04,-409.73 261.75,-399.52 255.13,-390.26"/>
<polygon fill="black" stroke="black" points="258.1,-388.4 249.44,-382.3 252.41,-392.47 258.1,-388.4"/>
</g>
<!-- n3 -->
<g id="node15" class="node">
<title>n3</title>
<ellipse fill="none" stroke="black" cx="336.8" cy="-363.6" rx="41.12" ry="18"/>
<text text-anchor="middle" x="336.8" y="-358.55" font-family="Times,serif" font-size="14.00">85 (S 2)</text>
</g>
<!-- n1&#45;&gt;n3 -->
<g id="edge2" class="edge">
<title>n1&#45;&gt;n3</title>
<path fill="none" stroke="black" d="M298.65,-418.01C304.56,-409.73 311.85,-399.52 318.47,-390.26"/>
<polygon fill="black" stroke="black" points="321.19,-392.47 324.16,-382.3 315.5,-388.4 321.19,-392.47"/>
</g>
<!-- n4 -->
<g id="node16" class="node">
<title>n4</title>
<ellipse fill="none" stroke="black" cx="144.8" cy="-291.6" rx="36.51" ry="18"/>
<text text-anchor="middle" x="144.8" y="-286.55" font-family="Times,serif" font-size="14.00">7 (S 5)</text>
</g>
<!-- n2&#45;&gt;n4 -->
<g id="edge3" class="edge">
<title>n2&#45;&gt;n4</title>
<path fill="none" stroke="black" d="M216.84,-347.41C204.01,-337.65 187.14,-324.82 172.96,-314.02"/>
<polygon fill="black" stroke="black" points="175.38,-311.47 165.3,-308.2 171.14,-317.04 175.38,-311.47"/>
</g>
<!-- n5 -->
<g id="node17" class="node">
<title>n5</title>
<ellipse fill="none" stroke="black" cx="244.8" cy="-291.6" rx="41.12" ry="18"/>
<text text-anchor="middle" x="244.8" y="-286.55" font-family="Times,serif" font-size="14.00">62 (S 2)</text>
</g>
<!-- n2&#45;&gt;n5 -->
<g id="edge4" class="edge">
<title>n2&#45;&gt;n5</title>
<path fill="none" stroke="black" d="M238.78,-345.3C239.61,-338.01 240.6,-329.33 241.54,-321.14"/>
<polygon fill="black" stroke="black" points="245.02,-321.54 242.67,-311.21 238.06,-320.75 245.02,-321.54"/>
</g>
<!-- n3&#45;&gt;l1 -->
<g id="edge5" class="edge">
<title>n3&#45;&gt;l1</title>
<path fill="none" stroke="black" d="M335.07,-345.3C334.12,-335.85 332.95,-324.06 331.94,-314.03"/>
<polygon fill="black" stroke="black" points="335.43,-313.68 330.95,-304.08 328.46,-314.38 335.43,-313.68"/>
</g>
<!-- n6 -->
<g id="node18" class="node">
<title>n6</title>
<ellipse fill="none" stroke="black" cx="399.8" cy="-291.6" rx="41.12" ry="18"/>
<text text-anchor="middle" x="399.8" y="-286.55" font-family="Times,serif" font-size="14.00">96 (S 1)</text>
</g>
<!-- n3&#45;&gt;n6 -->
<g id="edge6" class="edge">
<title>n3&#45;&gt;n6</title>
<path fill="none" stroke="black" d="M351.41,-346.36C359.2,-337.71 368.95,-326.87 377.66,-317.2"/>
<polygon fill="black" stroke="black" points="380.17,-319.65 384.25,-309.87 374.96,-314.96 380.17,-319.65"/>
</g>
<!-- n7 -->
<g id="node19" class="node">
<title>n7</title>
<ellipse fill="none" stroke="black" cx="48.8" cy="-219.6" rx="36.51" ry="18"/>
<text text-anchor="middle" x="48.8" y="-214.55" font-family="Times,serif" font-size="14.00">2 (S 1)</text>
</g>
<!-- n4&#45;&gt;n7 -->
<g id="edge7" class="edge">
<title>n4&#45;&gt;n7</title>
<path fill="none" stroke="black" d="M124.91,-276.1C111.26,-266.15 92.94,-252.79 77.69,-241.67"/>
<polygon fill="black" stroke="black" points="80.03,-239.04 69.89,-235.98 75.91,-244.7 80.03,-239.04"/>
</g>
<!-- n8 -->
<g id="node20" class="node">
<title>n8</title>
<ellipse fill="none" stroke="black" cx="144.8" cy="-219.6" rx="41.12" ry="18"/>
<text text-anchor="middle" x="144.8" y="-214.55" font-family="Times,serif" font-size="14.00">26 (S 3)</text>
</g>
<!-- n4&#45;&gt;n8 -->
<g id="edge8" class="edge">
<title>n4&#45;&gt;n8</title>
<path fill="none" stroke="black" d="M144.8,-273.3C144.8,-266.01 144.8,-257.33 144.8,-249.14"/>
<polygon fill="black" stroke="black" points="148.3,-249.22 144.8,-239.22 141.3,-249.22 148.3,-249.22"/>
</g>
<!-- n5&#45;&gt;l2 -->
<g id="edge10" class="edge">
<title>n5&#45;&gt;l2</title>
<path fill="none" stroke="black" d="M260.68,-274.72C272.38,-263.02 288.2,-247.2 299.71,-235.69"/>
<polygon fill="black" stroke="black" points="301.86,-238.49 306.46,-228.94 296.91,-233.54 301.86,-238.49"/>
</g>
<!-- n9 -->
<g id="node21" class="node">
<title>n9</title>
<ellipse fill="none" stroke="black" cx="244.8" cy="-219.6" rx="41.12" ry="18"/>
<text text-anchor="middle" x="244.8" y="-214.55" font-family="Times,serif" font-size="14.00">38 (S 1)</text>
</g>
<!-- n5&#45;&gt;n9 -->
<g id="edge9" class="edge">
<title>n5&#45;&gt;n9</title>
<path fill="none" stroke="black" d="M244.8,-273.3C244.8,-266.01 244.8,-257.33 244.8,-249.14"/>
<polygon fill="black" stroke="black" points="248.3,-249.22 244.8,-239.22 241.3,-249.22 248.3,-249.22"/>
</g>
<!-- n6&#45;&gt;l3 -->
<g id="edge11" class="edge">
<title>n6&#45;&gt;l3</title>
<path fill="none" stroke="black" d="M394.86,-273.3C392.06,-263.52 388.55,-251.24 385.63,-241"/>
<polygon fill="black" stroke="black" points="389.06,-240.29 382.95,-231.63 382.33,-242.21 389.06,-240.29"/>
</g>
<!-- n6&#45;&gt;l4 -->
<g id="edge12" class="edge">
<title>n6&#45;&gt;l4</title>
<path fill="none" stroke="black" d="M404.74,-273.3C407.54,-263.52 411.05,-251.24 413.97,-241"/>
<polygon fill="black" stroke="black" points="417.27,-242.21 416.65,-231.63 410.54,-240.29 417.27,-242.21"/>
</g>
<!-- n7&#45;&gt;l5 -->
<g id="edge13" class="edge">
<title>n7&#45;&gt;l5</title>
<path fill="none" stroke="black" d="M39.79,-202.01C34.19,-191.69 26.97,-178.38 21.13,-167.63"/>
<polygon fill="black" stroke="black" points="24.25,-166.03 16.4,-158.92 18.1,-169.37 24.25,-166.03"/>
</g>
<!-- n7&#45;&gt;l6 -->
<g id="edge14" class="edge">
<title>n7&#45;&gt;l6</title>
<path fill="none" stroke="black" d="M49.29,-201.3C49.56,-191.85 49.9,-180.06 50.19,-170.03"/>
<polygon fill="black" stroke="black" points="53.68,-170.18 50.47,-160.09 46.69,-169.98 53.68,-170.18"/>
</g>
<!-- n8&#45;&gt;l7 -->
<g id="edge16" class="edge">
<title>n8&#45;&gt;l7</title>
<path fill="none" stroke="black" d="M157.6,-202.01C166,-191.12 176.98,-176.89 185.48,-165.86"/>
<polygon fill="black" stroke="black" points="188.2,-168.07 191.54,-158.02 182.66,-163.8 188.2,-168.07"/>
</g>
<!-- n10 -->
<g id="node22" class="node">
<title>n10</title>
<ellipse fill="none" stroke="black" cx="128.8" cy="-147.6" rx="41.12" ry="18"/>
<text text-anchor="middle" x="128.8" y="-142.55" font-family="Times,serif" font-size="14.00">12 (S 2)</text>
</g>
<!-- n8&#45;&gt;n10 -->
<g id="edge15" class="edge">
<title>n8&#45;&gt;n10</title>
<path fill="none" stroke="black" d="M140.84,-201.3C139.16,-193.92 137.15,-185.12 135.26,-176.85"/>
<polygon fill="black" stroke="black" points="138.69,-176.15 133.05,-167.18 131.86,-177.71 138.69,-176.15"/>
</g>
<!-- n9&#45;&gt;l8 -->
<g id="edge17" class="edge">
<title>n9&#45;&gt;l8</title>
<path fill="none" stroke="black" d="M244.31,-201.3C244.04,-191.85 243.7,-180.06 243.41,-170.03"/>
<polygon fill="black" stroke="black" points="246.91,-169.98 243.13,-160.09 239.92,-170.18 246.91,-169.98"/>
</g>
<!-- n9&#45;&gt;l9 -->
<g id="edge18" class="edge">
<title>n9&#45;&gt;l9</title>
<path fill="none" stroke="black" d="M254,-201.65C259.61,-191.32 266.78,-178.1 272.57,-167.44"/>
<polygon fill="black" stroke="black" points="275.56,-169.28 277.25,-158.82 269.4,-165.94 275.56,-169.28"/>
</g>
<!-- n10&#45;&gt;l10 -->
<g id="edge19" class="edge">
<title>n10&#45;&gt;l10</title>
<path fill="none" stroke="black" d="M120.33,-129.65C115.28,-119.55 108.84,-106.69 103.58,-96.15"/>
<polygon fill="black" stroke="black" points="106.72,-94.61 99.12,-87.24 100.46,-97.75 106.72,-94.61"/>
</g>
<!-- n11 -->
<g id="node23" class="node">
<title>n11</title>
<ellipse fill="none" stroke="black" cx="163.8" cy="-75.6" rx="41.12" ry="18"/>
<text text-anchor="middle" x="163.8" y="-70.55" font-family="Times,serif" font-size="14.00">14 (S 1)</text>
</g>
<!-- n10&#45;&gt;n11 -->
<g id="edge20" class="edge">
<title>n10&#45;&gt;n11</title>
<path fill="none" stroke="black" d="M137.27,-129.65C141.18,-121.83 145.93,-112.35 150.31,-103.58"/>
<polygon fill="black" stroke="black" points="153.39,-105.25 154.73,-94.74 147.13,-102.12 153.39,-105.25"/>
</g>
<!-- n11&#45;&gt;l11 -->
<g id="edge21" class="edge">
<title>n11&#45;&gt;l11</title>
<path fill="none" stroke="black" d="M158.33,-57.44C155.85,-49.63 152.89,-40.33 150.29,-32.17"/>
<polygon fill="black" stroke="black" points="153.67,-31.25 147.3,-22.78 147,-33.37 153.67,-31.25"/>
</g>
<!-- n11&#45;&gt;l12 -->
<g id="edge22" class="edge">
<title>n11&#45;&gt;l12</title>
<path fill="none" stroke="black" d="M169.27,-57.44C171.75,-49.63 174.71,-40.33 177.31,-32.17"/>
<polygon fill="black" stroke="black" points="180.6,-33.37 180.3,-22.78 173.93,-31.25 180.6,-33.37"/>
</g>
</g>
</svg>
