<?xml version="1.0" encoding="UTF-8" standalone="no"?>
<!DOCTYPE svg PUBLIC "-//W3C//DTD SVG 1.1//EN"
 "http://www.w3.org/Graphics/SVG/1.1/DTD/svg11.dtd">
<!-- Generated by graphviz version 9.0.0 (20230911.1827)
 -->
<!-- Title: tree Pages: 1 -->
<svg width="550pt" height="390pt"
 viewBox="0.00 0.00 549.92 389.60" xmlns="http://www.w3.org/2000/svg" xmlns:xlink="http://www.w3.org/1999/xlink">
<g id="graph0" class="graph" transform="scale(1 1) rotate(0) translate(4 385.6)">
<title>tree</title>
<polygon fill="white" stroke="none" points="-4,4 -4,-385.6 545.92,-385.6 545.92,4 -4,4"/>
<!-- l1 -->
<g id="node1" class="node">
<title>l1</title>
<ellipse fill="blue" stroke="blue" cx="10.8" cy="-147.6" rx="10.8" ry="10.8"/>
</g>
<!-- l2 -->
<g id="node2" class="node">
<title>l2</title>
<ellipse fill="blue" stroke="blue" cx="50.8" cy="-147.6" rx="10.8" ry="10.8"/>
</g>
<!-- l3 -->
<g id="node3" class="node">
<title>l3</title>
<ellipse fill="blue" stroke="blue" cx="390.8" cy="-147.6" rx="10.8" ry="10.8"/>
</g>
<!-- l4 -->
<g id="node4" class="node">
<title>l4</title>
<ellipse fill="blue" stroke="blue" cx="430.8" cy="-147.6" rx="10.8" ry="10.8"/>
</g>
<!-- l5 -->
<g id="node5" class="node">
<title>l5</title>
<ellipse fill="blue" stroke="blue" cx="82.8" cy="-75.6" rx="10.8" ry="10.8"/>
</g>
<!-- l6 -->
<g id="node6" class="node">
<title>l6</title>
<ellipse fill="blue" stroke="blue" cx="122.8" cy="-75.6" rx="10.8" ry="10.8"/>
</g>
<!-- l7 -->
<g id="node7" class="node">
<title>l7</title>
<ellipse fill="blue" stroke="blue" cx="265.8" cy="-75.6" rx="10.8" ry="10.8"/>
</g>
<!-- l8 -->
<g id="node8" class="node">
<title>l8</title>
<ellipse fill="blue" stroke="blue" cx="310.8" cy="-75.6" rx="10.8" ry="10.8"/>
</g>
<!-- l9 -->
<g id="node9" class="node">
<title>l9</title>
<ellipse fill="blue" stroke="blue" cx="350.8" cy="-75.6" rx="10.8" ry="10.8"/>
</g>
<!-- l10 -->
<g id="node10" class="node">
<title>l10</title>
<ellipse fill="blue" stroke="blue" cx="480.8" cy="-75.6" rx="10.8" ry="10.8"/>
</g>
<!-- l11 -->
<g id="node11" class="node">
<title>l11</title>
<ellipse fill="blue" stroke="blue" cx="520.8" cy="-75.6" rx="10.8" ry="10.8"/>
</g>
<!-- l12 -->
<g id="node12" class="node">
<title>l12</title>
<ellipse fill="blue" stroke="blue" cx="175.8" cy="-10.8" rx="10.8" ry="10.8"/>
</g>
<!-- l13 -->
<g id="node13" class="node">
<title>l13</title>
<ellipse fill="blue" stroke="blue" cx="215.8" cy="-10.8" rx="10.8" ry="10.8"/>
</g>
<!-- n1 -->
<g id="node14" class="node">
<title>n1</title>
<ellipse fill="none" stroke="black" cx="238.8" cy="-363.6" rx="45.72" ry="18"/>
<text text-anchor="middle" x="238.8" y="-358.55" font-family="Times,serif" font-size="14.00">36 (S 12)</text>
</g>
<!-- n2 -->
<g id="node15" class="node">
<title>n2</title>
<ellipse fill="none" stroke="black" cx="188.8" cy="-291.6" rx="36.51" ry="18"/>
<text text-anchor="middle" x="188.8" y="-286.55" font-family="Times,serif" font-size="14.00">7 (S 6)</text>
</g>
<!-- n1&#45;&gt;n2 -->
<g id="edge1" class="edge">
<title>n1&#45;&gt;n2</title>
<path fill="none" stroke="black" d="M226.95,-346.01C221.04,-337.73 213.75,-327.52 207.13,-318.26"/>
<polygon fill="black" stroke="black" points="210.1,-316.4 201.44,-310.3 204.41,-320.47 210.1,-316.4"/>
</g>
<!-- n3 -->
<g id="node16" class="node">
<title>n3</title>
<ellipse fill="none" stroke="black" cx="325.8" cy="-291.6" rx="41.12" ry="18"/>
<text text-anchor="middle" x="325.8" y="-286.55" font-family="Times,serif" font-size="14.00">66 (S 5)</text>
</g>
<!-- n1&#45;&gt;n3 -->
<g id="edge2" class="edge">
<title>n1&#45;&gt;n3</title>
<path fill="none" stroke="black" d="M258.11,-347.06C269.9,-337.57 285.18,-325.28 298.23,-314.78"/>
<polygon fill="black" stroke="black" points="300.07,-317.8 305.67,-308.8 295.68,-312.34 300.07,-317.8"/>
</g>
<!-- n4 -->
<g id="node17" class="node">
<title>n4</title>
<ellipse fill="none" stroke="black" cx="50.8" cy="-219.6" rx="36.51" ry="18"/>
<text text-anchor="middle" x="50.8" y="-214.55" font-family="Times,serif" font-size="14.00">2 (S 1)</text>
</g>
<!-- n2&#45;&gt;n4 -->
<g id="edge3" class="edge">
<title>n2&#45;&gt;n4</title>
<path fill="none" stroke="black" d="M164.13,-278.09C142.29,-267.01 110.16,-250.71 85.69,-238.3"/>
<polygon fill="black" stroke="black" points="87.57,-235.33 77.07,-233.93 84.41,-241.57 87.57,-235.33"/>
</g>
<!-- n5 -->
<g id="node18" class="node">
<title>n5</title>
<ellipse fill="none" stroke="black" cx="188.8" cy="-219.6" rx="41.12" ry="18"/>
<text text-anchor="middle" x="188.8" y="-214.55" font-family="Times,serif" font-size="14.00">14 (S 4)</text>
</g>
<!-- n2&#45;&gt;n5 -->
<g id="edge4" class="edge">
<title>n2&#45;&gt;n5</title>
<path fill="none" stroke="black" d="M188.8,-273.3C188.8,-266.01 188.8,-257.33 188.8,-249.14"/>
<polygon fill="black" stroke="black" points="192.3,-249.22 188.8,-239.22 185.3,-249.22 192.3,-249.22"/>
</g>
<!-- n6 -->
<g id="node19" class="node">
<title>n6</title>
<ellipse fill="none" stroke="black" cx="325.8" cy="-219.6" rx="41.12" ry="18"/>
<text text-anchor="middle" x="325.8" y="-214.55" font-family="Times,serif" font-size="14.00">62 (S 2)</text>
</g>
<!-- n3&#45;&gt;n6 -->
<g id="edge5" class="edge">
<title>n3&#45;&gt;n6</title>
<path fill="none" stroke="black" d="M325.8,-273.3C325.8,-266.01 325.8,-257.33 325.8,-249.14"/>
<polygon fill="black" stroke="black" points="329.3,-249.22 325.8,-239.22 322.3,-249.22 329.3,-249.22"/>
</g>
<!-- n7 -->
<g id="node20" class="node">
<title>n7</title>
<ellipse fill="none" stroke="black" cx="430.8" cy="-219.6" rx="41.12" ry="18"/>
<text text-anchor="middle" x="430.8" y="-214.55" font-family="Times,serif" font-size="14.00">85 (S 2)</text>
</g>
<!-- n3&#45;&gt;n7 -->
<g id="edge6" class="edge">
<title>n3&#45;&gt;n7</title>
<path fill="none" stroke="black" d="M347.81,-275.93C362.79,-265.94 382.84,-252.57 399.48,-241.48"/>
<polygon fill="black" stroke="black" points="401.18,-244.55 407.56,-236.09 397.3,-238.73 401.18,-244.55"/>
</g>
<!-- n4&#45;&gt;l1 -->
<g id="edge7" class="edge">
<title>n4&#45;&gt;l1</title>
<path fill="none" stroke="black" d="M41.32,-202.01C35.36,-191.58 27.66,-178.1 21.48,-167.29"/>
<polygon fill="black" stroke="black" points="24.69,-165.85 16.69,-158.9 18.61,-169.32 24.69,-165.85"/>
</g>
<!-- n4&#45;&gt;l2 -->
<g id="edge8" class="edge">
<title>n4&#45;&gt;l2</title>
<path fill="none" stroke="black" d="M50.8,-201.3C50.8,-191.85 50.8,-180.06 50.8,-170.03"/>
<polygon fill="black" stroke="black" points="54.3,-170.09 50.8,-160.09 47.3,-170.09 54.3,-170.09"/>
</g>
<!-- n8 -->
<g id="node21" class="node">
<title>n8</title>
<ellipse fill="none" stroke="black" cx="120.8" cy="-147.6" rx="41.12" ry="18"/>
<text text-anchor="middle" x="120.8" y="-142.55" font-family="Times,serif" font-size="14.00">12 (S 1)</text>
</g>
<!-- n5&#45;&gt;n8 -->
<g id="edge9" class="edge">
<title>n5&#45;&gt;n8</title>
<path fill="none" stroke="black" d="M173.37,-202.72C164.68,-193.77 153.64,-182.41 143.93,-172.41"/>
<polygon fill="black" stroke="black" points="146.7,-170.24 137.22,-165.51 141.68,-175.12 146.7,-170.24"/>
</g>
<!-- n9 -->
<g id="node22" class="node">
<title>n9</title>
<ellipse fill="none" stroke="black" cx="220.8" cy="-147.6" rx="41.12" ry="18"/>
<text text-anchor="middle" x="220.8" y="-142.55" font-family="Times,serif" font-size="14.00">26 (S 2)</text>
</g>
<!-- n5&#45;&gt;n9 -->
<g id="edge10" class="edge">
<title>n5&#45;&gt;n9</title>
<path fill="none" stroke="black" d="M196.55,-201.65C200.12,-193.83 204.46,-184.35 208.47,-175.58"/>
<polygon fill="black" stroke="black" points="211.52,-177.32 212.5,-166.77 205.15,-174.41 211.52,-177.32"/>
</g>
<!-- n6&#45;&gt;l3 -->
<g id="edge12" class="edge">
<title>n6&#45;&gt;l3</title>
<path fill="none" stroke="black" d="M340.88,-202.36C351.53,-190.89 365.73,-175.6 376.26,-164.26"/>
<polygon fill="black" stroke="black" points="378.51,-166.98 382.75,-157.27 373.38,-162.21 378.51,-166.98"/>
</g>
<!-- n10 -->
<g id="node23" class="node">
<title>n10</title>
<ellipse fill="none" stroke="black" cx="320.8" cy="-147.6" rx="41.12" ry="18"/>
<text text-anchor="middle" x="320.8" y="-142.55" font-family="Times,serif" font-size="14.00">38 (S 1)</text>
</g>
<!-- n6&#45;&gt;n10 -->
<g id="edge11" class="edge">
<title>n6&#45;&gt;n10</title>
<path fill="none" stroke="black" d="M324.56,-201.3C324.04,-194.01 323.42,-185.33 322.84,-177.14"/>
<polygon fill="black" stroke="black" points="326.33,-176.94 322.13,-167.21 319.35,-177.44 326.33,-176.94"/>
</g>
<!-- n7&#45;&gt;l4 -->
<g id="edge13" class="edge">
<title>n7&#45;&gt;l4</title>
<path fill="none" stroke="black" d="M430.8,-201.3C430.8,-191.85 430.8,-180.06 430.8,-170.03"/>
<polygon fill="black" stroke="black" points="434.3,-170.09 430.8,-160.09 427.3,-170.09 434.3,-170.09"/>
</g>
<!-- n11 -->
<g id="node24" class="node">
<title>n11</title>
<ellipse fill="none" stroke="black" cx="500.8" cy="-147.6" rx="41.12" ry="18"/>
<text text-anchor="middle" x="500.8" y="-142.55" font-family="Times,serif" font-size="14.00">96 (S 1)</text>
</g>
<!-- n7&#45;&gt;n11 -->
<g id="edge14" class="edge">
<title>n7&#45;&gt;n11</title>
<path fill="none" stroke="black" d="M446.68,-202.72C455.63,-193.77 466.99,-182.41 476.99,-172.41"/>
<polygon fill="black" stroke="black" points="479.31,-175.04 483.91,-165.49 474.36,-170.09 479.31,-175.04"/>
</g>
<!-- n8&#45;&gt;l5 -->
<g id="edge15" class="edge">
<title>n8&#45;&gt;l5</title>
<path fill="none" stroke="black" d="M111.6,-129.65C105.99,-119.32 98.82,-106.1 93.03,-95.44"/>
<polygon fill="black" stroke="black" points="96.2,-93.94 88.35,-86.82 90.04,-97.28 96.2,-93.94"/>
</g>
<!-- n8&#45;&gt;l6 -->
<g id="edge16" class="edge">
<title>n8&#45;&gt;l6</title>
<path fill="none" stroke="black" d="M121.29,-129.3C121.56,-119.85 121.9,-108.06 122.19,-98.03"/>
<polygon fill="black" stroke="black" points="125.68,-98.18 122.47,-88.09 118.69,-97.98 125.68,-98.18"/>
</g>
<!-- n9&#45;&gt;l7 -->
<g id="edge18" class="edge">
<title>n9&#45;&gt;l7</title>
<path fill="none" stroke="black" d="M231.46,-130.01C238.32,-119.35 247.22,-105.5 254.24,-94.58"/>
<polygon fill="black" stroke="black" points="256.99,-96.78 259.45,-86.47 251.1,-92.99 256.99,-96.78"/>
</g>
<!-- n12 -->
<g id="node25" class="node">
<title>n12</title>
<ellipse fill="none" stroke="black" cx="195.8" cy="-75.6" rx="41.12" ry="18"/>
<text text-anchor="middle" x="195.8" y="-70.55" font-family="Times,serif" font-size="14.00">23 (S 1)</text>
</g>
<!-- n9&#45;&gt;n12 -->
<g id="edge17" class="edge">
<title>n9&#45;&gt;n12</title>
<path fill="none" stroke="black" d="M214.75,-129.65C212.06,-122.12 208.81,-113.04 205.78,-104.54"/>
<polygon fill="black" stroke="black" points="209.14,-103.54 202.48,-95.3 202.55,-105.9 209.14,-103.54"/>
</g>
<!-- n10&#45;&gt;l8 -->
<g id="edge19" class="edge">
<title>n10&#45;&gt;l8</title>
<path fill="none" stroke="black" d="M318.33,-129.3C316.96,-119.74 315.26,-107.8 313.81,-97.7"/>
<polygon fill="black" stroke="black" points="317.32,-97.48 312.44,-88.07 310.39,-98.47 317.32,-97.48"/>
</g>
<!-- n10&#45;&gt;l9 -->
<g id="edge20" class="edge">
<title>n10&#45;&gt;l9</title>
<path fill="none" stroke="black" d="M328.06,-129.65C332.39,-119.55 337.91,-106.69 342.42,-96.15"/>
<polygon fill="black" stroke="black" points="345.5,-97.84 346.23,-87.27 339.07,-95.09 345.5,-97.84"/>
</g>
<!-- n11&#45;&gt;l10 -->
<g id="edge21" class="edge">
<title>n11&#45;&gt;l10</title>
<path fill="none" stroke="black" d="M495.86,-129.3C493.06,-119.52 489.55,-107.24 486.63,-97"/>
<polygon fill="black" stroke="black" points="490.06,-96.29 483.95,-87.63 483.33,-98.21 490.06,-96.29"/>
</g>
<!-- n11&#45;&gt;l11 -->
<g id="edge22" class="edge">
<title>n11&#45;&gt;l11</title>
<path fill="none" stroke="black" d="M505.74,-129.3C508.54,-119.52 512.05,-107.24 514.97,-97"/>
<polygon fill="black" stroke="black" points="518.27,-98.21 517.65,-87.63 511.54,-96.29 518.27,-98.21"/>
</g>
<!-- n12&#45;&gt;l12 -->
<g id="edge23" class="edge">
<title>n12&#45;&gt;l12</title>
<path fill="none" stroke="black" d="M190.33,-57.44C187.85,-49.63 184.89,-40.33 182.29,-32.17"/>
<polygon fill="black" stroke="black" points="185.67,-31.25 179.3,-22.78 179,-33.37 185.67,-31.25"/>
</g>
<!-- n12&#45;&gt;l13 -->
<g id="edge24" class="edge">
<title>n12&#45;&gt;l13</title>
<path fill="none" stroke="black" d="M201.27,-57.44C203.75,-49.63 206.71,-40.33 209.31,-32.17"/>
<polygon fill="black" stroke="black" points="212.6,-33.37 212.3,-22.78 205.93,-31.25 212.6,-33.37"/>
</g>
</g>
</svg>
