<?xml version="1.0" encoding="UTF-8" standalone="no"?>
<!DOCTYPE svg PUBLIC "-//W3C//DTD SVG 1.1//EN"
 "http://www.w3.org/Graphics/SVG/1.1/DTD/svg11.dtd">
<!-- Generated by graphviz version 9.0.0 (20230911.1827)
 -->
<!-- Title: tree Pages: 1 -->
<svg width="449pt" height="534pt"
 viewBox="0.00 0.00 448.92 533.60" xmlns="http://www.w3.org/2000/svg" xmlns:xlink="http://www.w3.org/1999/xlink">
<g id="graph0" class="graph" transform="scale(1 1) rotate(0) translate(4 529.6)">
<title>tree</title>
<polygon fill="white" stroke="none" points="-4,4 -4,-529.6 444.92,-529.6 444.92,4 -4,4"/>
<!-- l1 -->
<g id="node1" class="node">
<title>l1</title>
<ellipse fill="blue" stroke="blue" cx="329.8" cy="-363.6" rx="10.8" ry="10.8"/>
</g>
<!-- l2 -->
<g id="node2" class="node">
<title>l2</title>
<ellipse fill="blue" stroke="blue" cx="314.8" cy="-291.6" rx="10.8" ry="10.8"/>
</g>
<!-- l3 -->
<g id="node3" class="node">
<title>l3</title>
<ellipse fill="blue" stroke="blue" cx="379.8" cy="-291.6" rx="10.8" ry="10.8"/>
</g>
<!-- l4 -->
<g id="node4" class="node">
<title>l4</title>
<ellipse fill="blue" stroke="blue" cx="419.8" cy="-291.6" rx="10.8" ry="10.8"/>
</g>
<!-- l5 -->
<g id="node5" class="node">
<title>l5</title>
<ellipse fill="blue" stroke="blue" cx="10.8" cy="-219.6" rx="10.8" ry="10.8"/>
</g>
<!-- l6 -->
<g id="node6" class="node">
<title>l6</title>
<ellipse fill="blue" stroke="blue" cx="50.8" cy="-219.6" rx="10.8" ry="10.8"/>
</g>
<!-- l7 -->
<g id="node7" class="node">
<title>l7</title>
<ellipse fill="blue" stroke="blue" cx="198.8" cy="-219.6" rx="10.8" ry="10.8"/>
</g>
<!-- l8 -->
<g id="node8" class="node">
<title>l8</title>
<ellipse fill="blue" stroke="blue" cx="242.8" cy="-219.6" rx="10.8" ry="10.8"/>
</g>
<!-- l9 -->
<g id="node9" class="node">
<title>l9</title>
<ellipse fill="blue" stroke="blue" cx="282.8" cy="-219.6" rx="10.8" ry="10.8"/>
</g>
<!-- l10 -->
<g id="node10" class="node">
<title>l10</title>
<ellipse fill="blue" stroke="blue" cx="93.8" cy="-147.6" rx="10.8" ry="10.8"/>
</g>
<!-- l11 -->
<g id="node11" class="node">
<title>l11</title>
<ellipse fill="blue" stroke="blue" cx="128.8" cy="-75.6" rx="10.8" ry="10.8"/>
</g>
<!-- l12 -->
<g id="node12" class="node">
<title>l12</title>
<ellipse fill="blue" stroke="blue" cx="178.8" cy="-10.8" rx="10.8" ry="10.8"/>
</g>
<!-- l13 -->
<g id="node13" class="node">
<title>l13</title>
<ellipse fill="blue" stroke="blue" cx="218.8" cy="-10.8" rx="10.8" ry="10.8"/>
</g>
<!-- n1 -->
<g id="node14" class="node">
<title>n1</title>
<ellipse fill="none" stroke="black" cx="286.8" cy="-507.6" rx="45.72" ry="18"/>
<text text-anchor="middle" x="286.8" y="-502.55" font-family="Times,serif" font-size="14.00">66 (S 12)</text>
</g>
<!-- n2 -->
<g id="node15" class="node">
<title>n2</title>
<ellipse fill="none" stroke="black" cx="236.8" cy="-435.6" rx="41.12" ry="18"/>
<text text-anchor="middle" x="236.8" y="-430.55" font-family="Times,serif" font-size="14.00">36 (S 9)</text>
</g>
<!-- n1&#45;&gt;n2 -->
<g id="edge1" class="edge">
<title>n1&#45;&gt;n2</title>
<path fill="none" stroke="black" d="M274.95,-490.01C269.04,-481.73 261.75,-471.52 255.13,-462.26"/>
<polygon fill="black" stroke="black" points="258.1,-460.4 249.44,-454.3 252.41,-464.47 258.1,-460.4"/>
</g>
<!-- n3 -->
<g id="node16" class="node">
<title>n3</title>
<ellipse fill="none" stroke="black" cx="336.8" cy="-435.6" rx="41.12" ry="18"/>
<text text-anchor="middle" x="336.8" y="-430.55" font-family="Times,serif" font-size="14.00">85 (S 2)</text>
</g>
<!-- n1&#45;&gt;n3 -->
<g id="edge2" class="edge">
<title>n1&#45;&gt;n3</title>
<path fill="none" stroke="black" d="M298.65,-490.01C304.56,-481.73 311.85,-471.52 318.47,-462.26"/>
<polygon fill="black" stroke="black" points="321.19,-464.47 324.16,-454.3 315.5,-460.4 321.19,-464.47"/>
</g>
<!-- n4 -->
<g id="node17" class="node">
<title>n4</title>
<ellipse fill="none" stroke="black" cx="144.8" cy="-363.6" rx="36.51" ry="18"/>
<text text-anchor="middle" x="144.8" y="-358.55" font-family="Times,serif" font-size="14.00">7 (S 6)</text>
</g>
<!-- n2&#45;&gt;n4 -->
<g id="edge3" class="edge">
<title>n2&#45;&gt;n4</title>
<path fill="none" stroke="black" d="M216.84,-419.41C204.01,-409.65 187.14,-396.82 172.96,-386.02"/>
<polygon fill="black" stroke="black" points="175.38,-383.47 165.3,-380.2 171.14,-389.04 175.38,-383.47"/>
</g>
<!-- n5 -->
<g id="node18" class="node">
<title>n5</title>
<ellipse fill="none" stroke="black" cx="244.8" cy="-363.6" rx="41.12" ry="18"/>
<text text-anchor="middle" x="244.8" y="-358.55" font-family="Times,serif" font-size="14.00">62 (S 2)</text>
</g>
<!-- n2&#45;&gt;n5 -->
<g id="edge4" class="edge">
<title>n2&#45;&gt;n5</title>
<path fill="none" stroke="black" d="M238.78,-417.3C239.61,-410.01 240.6,-401.33 241.54,-393.14"/>
<polygon fill="black" stroke="black" points="245.02,-393.54 242.67,-383.21 238.06,-392.75 245.02,-393.54"/>
</g>
<!-- n3&#45;&gt;l1 -->
<g id="edge5" class="edge">
<title>n3&#45;&gt;l1</title>
<path fill="none" stroke="black" d="M335.07,-417.3C334.12,-407.85 332.95,-396.06 331.94,-386.03"/>
<polygon fill="black" stroke="black" points="335.43,-385.68 330.95,-376.08 328.46,-386.38 335.43,-385.68"/>
</g>
<!-- n6 -->
<g id="node19" class="node">
<title>n6</title>
<ellipse fill="none" stroke="black" cx="399.8" cy="-363.6" rx="41.12" ry="18"/>
<text text-anchor="middle" x="399.8" y="-358.55" font-family="Times,serif" font-size="14.00">96 (S 1)</text>
</g>
<!-- n3&#45;&gt;n6 -->
<g id="edge6" class="edge">
<title>n3&#45;&gt;n6</title>
<path fill="none" stroke="black" d="M351.41,-418.36C359.2,-409.71 368.95,-398.87 377.66,-389.2"/>
<polygon fill="black" stroke="black" points="380.17,-391.65 384.25,-381.87 374.96,-386.96 380.17,-391.65"/>
</g>
<!-- n7 -->
<g id="node20" class="node">
<title>n7</title>
<ellipse fill="none" stroke="black" cx="48.8" cy="-291.6" rx="36.51" ry="18"/>
<text text-anchor="middle" x="48.8" y="-286.55" font-family="Times,serif" font-size="14.00">2 (S 1)</text>
</g>
<!-- n4&#45;&gt;n7 -->
<g id="edge7" class="edge">
<title>n4&#45;&gt;n7</title>
<path fill="none" stroke="black" d="M124.91,-348.1C111.26,-338.15 92.94,-324.79 77.69,-313.67"/>
<polygon fill="black" stroke="black" points="80.03,-311.04 69.89,-307.98 75.91,-316.7 80.03,-311.04"/>
</g>
<!-- n8 -->
<g id="node21" class="node">
<title>n8</title>
<ellipse fill="none" stroke="black" cx="144.8" cy="-291.6" rx="41.12" ry="18"/>
<text text-anchor="middle" x="144.8" y="-286.55" font-family="Times,serif" font-size="14.00">26 (S 4)</text>
</g>
<!-- n4&#45;&gt;n8 -->
<g id="edge8" class="edge">
<title>n4&#45;&gt;n8</title>
<path fill="none" stroke="black" d="M144.8,-345.3C144.8,-338.01 144.8,-329.33 144.8,-321.14"/>
<polygon fill="black" stroke="black" points="148.3,-321.22 144.8,-311.22 141.3,-321.22 148.3,-321.22"/>
</g>
<!-- n5&#45;&gt;l2 -->
<g id="edge10" class="edge">
<title>n5&#45;&gt;l2</title>
<path fill="none" stroke="black" d="M260.68,-346.72C272.38,-335.02 288.2,-319.2 299.71,-307.69"/>
<polygon fill="black" stroke="black" points="301.86,-310.49 306.46,-300.94 296.91,-305.54 301.86,-310.49"/>
</g>
<!-- n9 -->
<g id="node22" class="node">
<title>n9</title>
<ellipse fill="none" stroke="black" cx="244.8" cy="-291.6" rx="41.12" ry="18"/>
<text text-anchor="middle" x="244.8" y="-286.55" font-family="Times,serif" font-size="14.00">38 (S 1)</text>
</g>
<!-- n5&#45;&gt;n9 -->
<g id="edge9" class="edge">
<title>n5&#45;&gt;n9</title>
<path fill="none" stroke="black" d="M244.8,-345.3C244.8,-338.01 244.8,-329.33 244.8,-321.14"/>
<polygon fill="black" stroke="black" points="248.3,-321.22 244.8,-311.22 241.3,-321.22 248.3,-321.22"/>
</g>
<!-- n6&#45;&gt;l3 -->
<g id="edge11" class="edge">
<title>n6&#45;&gt;l3</title>
<path fill="none" stroke="black" d="M394.86,-345.3C392.06,-335.52 388.55,-323.24 385.63,-313"/>
<polygon fill="black" stroke="black" points="389.06,-312.29 382.95,-303.63 382.33,-314.21 389.06,-312.29"/>
</g>
<!-- n6&#45;&gt;l4 -->
<g id="edge12" class="edge">
<title>n6&#45;&gt;l4</title>
<path fill="none" stroke="black" d="M404.74,-345.3C407.54,-335.52 411.05,-323.24 413.97,-313"/>
<polygon fill="black" stroke="black" points="417.27,-314.21 416.65,-303.63 410.54,-312.29 417.27,-314.21"/>
</g>
<!-- n7&#45;&gt;l5 -->
<g id="edge13" class="edge">
<title>n7&#45;&gt;l5</title>
<path fill="none" stroke="black" d="M39.79,-274.01C34.19,-263.69 26.97,-250.38 21.13,-239.63"/>
<polygon fill="black" stroke="black" points="24.25,-238.03 16.4,-230.92 18.1,-241.37 24.25,-238.03"/>
</g>
<!-- n7&#45;&gt;l6 -->
<g id="edge14" class="edge">
<title>n7&#45;&gt;l6</title>
<path fill="none" stroke="black" d="M49.29,-273.3C49.56,-263.85 49.9,-252.06 50.19,-242.03"/>
<polygon fill="black" stroke="black" points="53.68,-242.18 50.47,-232.09 46.69,-241.98 53.68,-242.18"/>
</g>
<!-- n8&#45;&gt;l7 -->
<g id="edge16" class="edge">
<title>n8&#45;&gt;l7</title>
<path fill="none" stroke="black" d="M157.6,-274.01C166,-263.12 176.98,-248.89 185.48,-237.86"/>
<polygon fill="black" stroke="black" points="188.2,-240.07 191.54,-230.02 182.66,-235.8 188.2,-240.07"/>
</g>
<!-- n10 -->
<g id="node23" class="node">
<title>n10</title>
<ellipse fill="none" stroke="black" cx="128.8" cy="-219.6" rx="41.12" ry="18"/>
<text text-anchor="middle" x="128.8" y="-214.55" font-family="Times,serif" font-size="14.00">12 (S 3)</text>
</g>
<!-- n8&#45;&gt;n10 -->
<g id="edge15" class="edge">
<title>n8&#45;&gt;n10</title>
<path fill="none" stroke="black" d="M140.84,-273.3C139.16,-265.92 137.15,-257.12 135.26,-248.85"/>
<polygon fill="black" stroke="black" points="138.69,-248.15 133.05,-239.18 131.86,-249.71 138.69,-248.15"/>
</g>
<!-- n9&#45;&gt;l8 -->
<g id="edge17" class="edge">
<title>n9&#45;&gt;l8</title>
<path fill="none" stroke="black" d="M244.31,-273.3C244.04,-263.85 243.7,-252.06 243.41,-242.03"/>
<polygon fill="black" stroke="black" points="246.91,-241.98 243.13,-232.09 239.92,-242.18 246.91,-241.98"/>
</g>
<!-- n9&#45;&gt;l9 -->
<g id="edge18" class="edge">
<title>n9&#45;&gt;l9</title>
<path fill="none" stroke="black" d="M254,-273.65C259.61,-263.32 266.78,-250.1 272.57,-239.44"/>
<polygon fill="black" stroke="black" points="275.56,-241.28 277.25,-230.82 269.4,-237.94 275.56,-241.28"/>
</g>
<!-- n10&#45;&gt;l10 -->
<g id="edge19" class="edge">
<title>n10&#45;&gt;l10</title>
<path fill="none" stroke="black" d="M120.33,-201.65C115.28,-191.55 108.84,-178.69 103.58,-168.15"/>
<polygon fill="black" stroke="black" points="106.72,-166.61 99.12,-159.24 100.46,-169.75 106.72,-166.61"/>
</g>
<!-- n11 -->
<g id="node24" class="node">
<title>n11</title>
<ellipse fill="none" stroke="black" cx="163.8" cy="-147.6" rx="41.12" ry="18"/>
<text text-anchor="middle" x="163.8" y="-142.55" font-family="Times,serif" font-size="14.00">14 (S 2)</text>
</g>
<!-- n10&#45;&gt;n11 -->
<g id="edge20" class="edge">
<title>n10&#45;&gt;n11</title>
<path fill="none" stroke="black" d="M137.27,-201.65C141.18,-193.83 145.93,-184.35 150.31,-175.58"/>
<polygon fill="black" stroke="black" points="153.39,-177.25 154.73,-166.74 147.13,-174.12 153.39,-177.25"/>
</g>
<!-- n11&#45;&gt;l11 -->
<g id="edge21" class="edge">
<title>n11&#45;&gt;l11</title>
<path fill="none" stroke="black" d="M155.33,-129.65C150.28,-119.55 143.84,-106.69 138.58,-96.15"/>
<polygon fill="black" stroke="black" points="141.72,-94.61 134.12,-87.24 135.46,-97.75 141.72,-94.61"/>
</g>
<!-- n12 -->
<g id="node25" class="node">
<title>n12</title>
<ellipse fill="none" stroke="black" cx="198.8" cy="-75.6" rx="41.12" ry="18"/>
<text text-anchor="middle" x="198.8" y="-70.55" font-family="Times,serif" font-size="14.00">23 (S 1)</text>
</g>
<!-- n11&#45;&gt;n12 -->
<g id="edge22" class="edge">
<title>n11&#45;&gt;n12</title>
<path fill="none" stroke="black" d="M172.27,-129.65C176.18,-121.83 180.93,-112.35 185.31,-103.58"/>
<polygon fill="black" stroke="black" points="188.39,-105.25 189.73,-94.74 182.13,-102.12 188.39,-105.25"/>
</g>
<!-- n12&#45;&gt;l12 -->
<g id="edge23" class="edge">
<title>n12&#45;&gt;l12</title>
<path fill="none" stroke="black" d="M193.33,-57.44C190.85,-49.63 187.89,-40.33 185.29,-32.17"/>
<polygon fill="black" stroke="black" points="188.67,-31.25 182.3,-22.78 182,-33.37 188.67,-31.25"/>
</g>
<!-- n12&#45;&gt;l13 -->
<g id="edge24" class="edge">
<title>n12&#45;&gt;l13</title>
<path fill="none" stroke="black" d="M204.27,-57.44C206.75,-49.63 209.71,-40.33 212.31,-32.17"/>
<polygon fill="black" stroke="black" points="215.6,-33.37 215.3,-22.78 208.93,-31.25 215.6,-33.37"/>
</g>
</g>
</svg>
