<?xml version="1.0" encoding="UTF-8" standalone="no"?>
<!DOCTYPE svg PUBLIC "-//W3C//DTD SVG 1.1//EN"
 "http://www.w3.org/Graphics/SVG/1.1/DTD/svg11.dtd">
<!-- Generated by graphviz version 9.0.0 (20230911.1827)
 -->
<!-- Title: tree Pages: 1 -->
<svg width="223pt" height="246pt"
 viewBox="0.00 0.00 222.60 245.60" xmlns="http://www.w3.org/2000/svg" xmlns:xlink="http://www.w3.org/1999/xlink">
<g id="graph0" class="graph" transform="scale(1 1) rotate(0) translate(4 241.6)">
<title>tree</title>
<polygon fill="white" stroke="none" points="-4,4 -4,-241.6 218.6,-241.6 218.6,4 -4,4"/>
<!-- l1 -->
<g id="node1" class="node">
<title>l1</title>
<ellipse fill="blue" stroke="blue" cx="10.8" cy="-75.6" rx="10.8" ry="10.8"/>
</g>
<!-- l2 -->
<g id="node2" class="node">
<title>l2</title>
<ellipse fill="blue" stroke="blue" cx="163.8" cy="-75.6" rx="10.8" ry="10.8"/>
</g>
<!-- l3 -->
<g id="node3" class="node">
<title>l3</title>
<ellipse fill="blue" stroke="blue" cx="203.8" cy="-75.6" rx="10.8" ry="10.8"/>
</g>
<!-- l4 -->
<g id="node4" class="node">
<title>l4</title>
<ellipse fill="blue" stroke="blue" cx="60.8" cy="-10.8" rx="10.8" ry="10.8"/>
</g>
<!-- l5 -->
<g id="node5" class="node">
<title>l5</title>
<ellipse fill="blue" stroke="blue" cx="100.8" cy="-10.8" rx="10.8" ry="10.8"/>
</g>
<!-- n1 -->
<g id="node6" class="node">
<title>n1</title>
<ellipse fill="none" stroke="black" cx="121.8" cy="-219.6" rx="41.12" ry="18"/>
<text text-anchor="middle" x="121.8" y="-214.55" font-family="Times,serif" font-size="14.00">66 (S 4)</text>
</g>
<!-- n2 -->
<g id="node7" class="node">
<title>n2</title>
<ellipse fill="none" stroke="black" cx="73.8" cy="-147.6" rx="36.51" ry="18"/>
<text text-anchor="middle" x="73.8" y="-142.55" font-family="Times,serif" font-size="14.00">2 (S 2)</text>
</g>
<!-- n1&#45;&gt;n2 -->
<g id="edge1" class="edge">
<title>n1&#45;&gt;n2</title>
<path fill="none" stroke="black" d="M110.42,-202.01C104.81,-193.82 97.9,-183.74 91.6,-174.55"/>
<polygon fill="black" stroke="black" points="94.49,-172.59 85.95,-166.32 88.72,-176.54 94.49,-172.59"/>
</g>
<!-- n3 -->
<g id="node8" class="node">
<title>n3</title>
<ellipse fill="none" stroke="black" cx="169.8" cy="-147.6" rx="41.12" ry="18"/>
<text text-anchor="middle" x="169.8" y="-142.55" font-family="Times,serif" font-size="14.00">85 (S 1)</text>
</g>
<!-- n1&#45;&gt;n3 -->
<g id="edge2" class="edge">
<title>n1&#45;&gt;n3</title>
<path fill="none" stroke="black" d="M133.18,-202.01C138.79,-193.82 145.7,-183.74 152,-174.55"/>
<polygon fill="black" stroke="black" points="154.88,-176.54 157.65,-166.32 149.11,-172.59 154.88,-176.54"/>
</g>
<!-- n2&#45;&gt;l1 -->
<g id="edge3" class="edge">
<title>n2&#45;&gt;l1</title>
<path fill="none" stroke="black" d="M59.5,-130.72C49.29,-119.37 35.6,-104.16 25.34,-92.75"/>
<polygon fill="black" stroke="black" points="27.98,-90.45 18.69,-85.36 22.77,-95.14 27.98,-90.45"/>
</g>
<!-- n4 -->
<g id="node9" class="node">
<title>n4</title>
<ellipse fill="none" stroke="black" cx="80.8" cy="-75.6" rx="41.12" ry="18"/>
<text text-anchor="middle" x="80.8" y="-70.55" font-family="Times,serif" font-size="14.00">36 (S 1)</text>
</g>
<!-- n2&#45;&gt;n4 -->
<g id="edge4" class="edge">
<title>n2&#45;&gt;n4</title>
<path fill="none" stroke="black" d="M75.53,-129.3C76.26,-122.01 77.13,-113.33 77.95,-105.14"/>
<polygon fill="black" stroke="black" points="81.43,-105.51 78.94,-95.21 74.46,-104.81 81.43,-105.51"/>
</g>
<!-- n3&#45;&gt;l2 -->
<g id="edge5" class="edge">
<title>n3&#45;&gt;l2</title>
<path fill="none" stroke="black" d="M168.32,-129.3C167.51,-119.85 166.5,-108.06 165.64,-98.03"/>
<polygon fill="black" stroke="black" points="169.13,-97.75 164.78,-88.08 162.15,-98.35 169.13,-97.75"/>
</g>
<!-- n3&#45;&gt;l3 -->
<g id="edge6" class="edge">
<title>n3&#45;&gt;l3</title>
<path fill="none" stroke="black" d="M178.03,-129.65C182.94,-119.55 189.19,-106.69 194.3,-96.15"/>
<polygon fill="black" stroke="black" points="197.41,-97.77 198.63,-87.24 191.11,-94.71 197.41,-97.77"/>
</g>
<!-- n4&#45;&gt;l4 -->
<g id="edge7" class="edge">
<title>n4&#45;&gt;l4</title>
<path fill="none" stroke="black" d="M75.33,-57.44C72.85,-49.63 69.89,-40.33 67.29,-32.17"/>
<polygon fill="black" stroke="black" points="70.67,-31.25 64.3,-22.78 64,-33.37 70.67,-31.25"/>
</g>
<!-- n4&#45;&gt;l5 -->
<g id="edge8" class="edge">
<title>n4&#45;&gt;l5</title>
<path fill="none" stroke="black" d="M86.27,-57.44C88.75,-49.63 91.71,-40.33 94.31,-32.17"/>
<polygon fill="black" stroke="black" points="97.6,-33.37 97.3,-22.78 90.93,-31.25 97.6,-33.37"/>
</g>
</g>
</svg>
