<?xml version="1.0" encoding="UTF-8" standalone="no"?>
<!DOCTYPE svg PUBLIC "-//W3C//DTD SVG 1.1//EN"
 "http://www.w3.org/Graphics/SVG/1.1/DTD/svg11.dtd">
<!-- Generated by graphviz version 9.0.0 (20230911.1827)
 -->
<!-- Title: tree Pages: 1 -->
<svg width="283pt" height="318pt"
 viewBox="0.00 0.00 282.92 317.60" xmlns="http://www.w3.org/2000/svg" xmlns:xlink="http://www.w3.org/1999/xlink">
<g id="graph0" class="graph" transform="scale(1 1) rotate(0) translate(4 313.6)">
<title>tree</title>
<polygon fill="white" stroke="none" points="-4,4 -4,-313.6 278.92,-313.6 278.92,4 -4,4"/>
<!-- l1 -->
<g id="node1" class="node">
<title>l1</title>
<ellipse fill="blue" stroke="blue" cx="10.8" cy="-147.6" rx="10.8" ry="10.8"/>
</g>
<!-- l2 -->
<g id="node2" class="node">
<title>l2</title>
<ellipse fill="blue" stroke="blue" cx="163.8" cy="-147.6" rx="10.8" ry="10.8"/>
</g>
<!-- l3 -->
<g id="node3" class="node">
<title>l3</title>
<ellipse fill="blue" stroke="blue" cx="112.8" cy="-75.6" rx="10.8" ry="10.8"/>
</g>
<!-- l4 -->
<g id="node4" class="node">
<title>l4</title>
<ellipse fill="blue" stroke="blue" cx="213.8" cy="-75.6" rx="10.8" ry="10.8"/>
</g>
<!-- l5 -->
<g id="node5" class="node">
<title>l5</title>
<ellipse fill="blue" stroke="blue" cx="253.8" cy="-75.6" rx="10.8" ry="10.8"/>
</g>
<!-- l6 -->
<g id="node6" class="node">
<title>l6</title>
<ellipse fill="blue" stroke="blue" cx="27.8" cy="-10.8" rx="10.8" ry="10.8"/>
</g>
<!-- l7 -->
<g id="node7" class="node">
<title>l7</title>
<ellipse fill="blue" stroke="blue" cx="67.8" cy="-10.8" rx="10.8" ry="10.8"/>
</g>
<!-- n1 -->
<g id="node8" class="node">
<title>n1</title>
<ellipse fill="none" stroke="black" cx="121.8" cy="-291.6" rx="41.12" ry="18"/>
<text text-anchor="middle" x="121.8" y="-286.55" font-family="Times,serif" font-size="14.00">66 (S 6)</text>
</g>
<!-- n2 -->
<g id="node9" class="node">
<title>n2</title>
<ellipse fill="none" stroke="black" cx="73.8" cy="-219.6" rx="36.51" ry="18"/>
<text text-anchor="middle" x="73.8" y="-214.55" font-family="Times,serif" font-size="14.00">2 (S 3)</text>
</g>
<!-- n1&#45;&gt;n2 -->
<g id="edge1" class="edge">
<title>n1&#45;&gt;n2</title>
<path fill="none" stroke="black" d="M110.42,-274.01C104.81,-265.82 97.9,-255.74 91.6,-246.55"/>
<polygon fill="black" stroke="black" points="94.49,-244.59 85.95,-238.32 88.72,-248.54 94.49,-244.59"/>
</g>
<!-- n3 -->
<g id="node10" class="node">
<title>n3</title>
<ellipse fill="none" stroke="black" cx="169.8" cy="-219.6" rx="41.12" ry="18"/>
<text text-anchor="middle" x="169.8" y="-214.55" font-family="Times,serif" font-size="14.00">85 (S 2)</text>
</g>
<!-- n1&#45;&gt;n3 -->
<g id="edge2" class="edge">
<title>n1&#45;&gt;n3</title>
<path fill="none" stroke="black" d="M133.18,-274.01C138.79,-265.82 145.7,-255.74 152,-246.55"/>
<polygon fill="black" stroke="black" points="154.88,-248.54 157.65,-238.32 149.11,-244.59 154.88,-248.54"/>
</g>
<!-- n2&#45;&gt;l1 -->
<g id="edge3" class="edge">
<title>n2&#45;&gt;l1</title>
<path fill="none" stroke="black" d="M59.5,-202.72C49.29,-191.37 35.6,-176.16 25.34,-164.75"/>
<polygon fill="black" stroke="black" points="27.98,-162.45 18.69,-157.36 22.77,-167.14 27.98,-162.45"/>
</g>
<!-- n4 -->
<g id="node11" class="node">
<title>n4</title>
<ellipse fill="none" stroke="black" cx="80.8" cy="-147.6" rx="41.12" ry="18"/>
<text text-anchor="middle" x="80.8" y="-142.55" font-family="Times,serif" font-size="14.00">36 (S 2)</text>
</g>
<!-- n2&#45;&gt;n4 -->
<g id="edge4" class="edge">
<title>n2&#45;&gt;n4</title>
<path fill="none" stroke="black" d="M75.53,-201.3C76.26,-194.01 77.13,-185.33 77.95,-177.14"/>
<polygon fill="black" stroke="black" points="81.43,-177.51 78.94,-167.21 74.46,-176.81 81.43,-177.51"/>
</g>
<!-- n3&#45;&gt;l2 -->
<g id="edge5" class="edge">
<title>n3&#45;&gt;l2</title>
<path fill="none" stroke="black" d="M168.32,-201.3C167.51,-191.85 166.5,-180.06 165.64,-170.03"/>
<polygon fill="black" stroke="black" points="169.13,-169.75 164.78,-160.08 162.15,-170.35 169.13,-169.75"/>
</g>
<!-- n5 -->
<g id="node12" class="node">
<title>n5</title>
<ellipse fill="none" stroke="black" cx="233.8" cy="-147.6" rx="41.12" ry="18"/>
<text text-anchor="middle" x="233.8" y="-142.55" font-family="Times,serif" font-size="14.00">96 (S 1)</text>
</g>
<!-- n3&#45;&gt;n5 -->
<g id="edge6" class="edge">
<title>n3&#45;&gt;n5</title>
<path fill="none" stroke="black" d="M184.64,-202.36C192.56,-193.71 202.46,-182.87 211.3,-173.2"/>
<polygon fill="black" stroke="black" points="213.85,-175.61 218.02,-165.86 208.68,-170.88 213.85,-175.61"/>
</g>
<!-- n4&#45;&gt;l3 -->
<g id="edge8" class="edge">
<title>n4&#45;&gt;l3</title>
<path fill="none" stroke="black" d="M88.55,-129.65C93.16,-119.55 99.05,-106.69 103.86,-96.15"/>
<polygon fill="black" stroke="black" points="106.95,-97.81 107.93,-87.26 100.59,-94.9 106.95,-97.81"/>
</g>
<!-- n6 -->
<g id="node13" class="node">
<title>n6</title>
<ellipse fill="none" stroke="black" cx="47.8" cy="-75.6" rx="36.51" ry="18"/>
<text text-anchor="middle" x="47.8" y="-70.55" font-family="Times,serif" font-size="14.00">7 (S 1)</text>
</g>
<!-- n4&#45;&gt;n6 -->
<g id="edge7" class="edge">
<title>n4&#45;&gt;n6</title>
<path fill="none" stroke="black" d="M72.81,-129.65C69.12,-121.83 64.65,-112.35 60.52,-103.58"/>
<polygon fill="black" stroke="black" points="63.79,-102.31 56.36,-94.76 57.46,-105.3 63.79,-102.31"/>
</g>
<!-- n5&#45;&gt;l4 -->
<g id="edge9" class="edge">
<title>n5&#45;&gt;l4</title>
<path fill="none" stroke="black" d="M228.86,-129.3C226.06,-119.52 222.55,-107.24 219.63,-97"/>
<polygon fill="black" stroke="black" points="223.06,-96.29 216.95,-87.63 216.33,-98.21 223.06,-96.29"/>
</g>
<!-- n5&#45;&gt;l5 -->
<g id="edge10" class="edge">
<title>n5&#45;&gt;l5</title>
<path fill="none" stroke="black" d="M238.74,-129.3C241.54,-119.52 245.05,-107.24 247.97,-97"/>
<polygon fill="black" stroke="black" points="251.27,-98.21 250.65,-87.63 244.54,-96.29 251.27,-98.21"/>
</g>
<!-- n6&#45;&gt;l6 -->
<g id="edge11" class="edge">
<title>n6&#45;&gt;l6</title>
<path fill="none" stroke="black" d="M42.33,-57.44C39.85,-49.63 36.89,-40.33 34.29,-32.17"/>
<polygon fill="black" stroke="black" points="37.67,-31.25 31.3,-22.78 31,-33.37 37.67,-31.25"/>
</g>
<!-- n6&#45;&gt;l7 -->
<g id="edge12" class="edge">
<title>n6&#45;&gt;l7</title>
<path fill="none" stroke="black" d="M53.27,-57.44C55.75,-49.63 58.71,-40.33 61.31,-32.17"/>
<polygon fill="black" stroke="black" points="64.6,-33.37 64.3,-22.78 57.93,-31.25 64.6,-33.37"/>
</g>
</g>
</svg>
