<?xml version="1.0" encoding="UTF-8" standalone="no"?>
<!DOCTYPE svg PUBLIC "-//W3C//DTD SVG 1.1//EN"
 "http://www.w3.org/Graphics/SVG/1.1/DTD/svg11.dtd">
<!-- Generated by graphviz version 9.0.0 (20230911.1827)
 -->
<!-- Title: tree Pages: 1 -->
<svg width="283pt" height="390pt"
 viewBox="0.00 0.00 282.92 389.60" xmlns="http://www.w3.org/2000/svg" xmlns:xlink="http://www.w3.org/1999/xlink">
<g id="graph0" class="graph" transform="scale(1 1) rotate(0) translate(4 385.6)">
<title>tree</title>
<polygon fill="white" stroke="none" points="-4,4 -4,-385.6 278.92,-385.6 278.92,4 -4,4"/>
<!-- l1 -->
<g id="node1" class="node">
<title>l1</title>
<ellipse fill="blue" stroke="blue" cx="10.8" cy="-219.6" rx="10.8" ry="10.8"/>
</g>
<!-- l2 -->
<g id="node2" class="node">
<title>l2</title>
<ellipse fill="blue" stroke="blue" cx="163.8" cy="-219.6" rx="10.8" ry="10.8"/>
</g>
<!-- l3 -->
<g id="node3" class="node">
<title>l3</title>
<ellipse fill="blue" stroke="blue" cx="112.8" cy="-147.6" rx="10.8" ry="10.8"/>
</g>
<!-- l4 -->
<g id="node4" class="node">
<title>l4</title>
<ellipse fill="blue" stroke="blue" cx="213.8" cy="-147.6" rx="10.8" ry="10.8"/>
</g>
<!-- l5 -->
<g id="node5" class="node">
<title>l5</title>
<ellipse fill="blue" stroke="blue" cx="253.8" cy="-147.6" rx="10.8" ry="10.8"/>
</g>
<!-- l6 -->
<g id="node6" class="node">
<title>l6</title>
<ellipse fill="blue" stroke="blue" cx="12.8" cy="-75.6" rx="10.8" ry="10.8"/>
</g>
<!-- l7 -->
<g id="node7" class="node">
<title>l7</title>
<ellipse fill="blue" stroke="blue" cx="62.8" cy="-10.8" rx="10.8" ry="10.8"/>
</g>
<!-- l8 -->
<g id="node8" class="node">
<title>l8</title>
<ellipse fill="blue" stroke="blue" cx="102.8" cy="-10.8" rx="10.8" ry="10.8"/>
</g>
<!-- n1 -->
<g id="node9" class="node">
<title>n1</title>
<ellipse fill="none" stroke="black" cx="121.8" cy="-363.6" rx="41.12" ry="18"/>
<text text-anchor="middle" x="121.8" y="-358.55" font-family="Times,serif" font-size="14.00">66 (S 7)</text>
</g>
<!-- n2 -->
<g id="node10" class="node">
<title>n2</title>
<ellipse fill="none" stroke="black" cx="73.8" cy="-291.6" rx="36.51" ry="18"/>
<text text-anchor="middle" x="73.8" y="-286.55" font-family="Times,serif" font-size="14.00">2 (S 4)</text>
</g>
<!-- n1&#45;&gt;n2 -->
<g id="edge1" class="edge">
<title>n1&#45;&gt;n2</title>
<path fill="none" stroke="black" d="M110.42,-346.01C104.81,-337.82 97.9,-327.74 91.6,-318.55"/>
<polygon fill="black" stroke="black" points="94.49,-316.59 85.95,-310.32 88.72,-320.54 94.49,-316.59"/>
</g>
<!-- n3 -->
<g id="node11" class="node">
<title>n3</title>
<ellipse fill="none" stroke="black" cx="169.8" cy="-291.6" rx="41.12" ry="18"/>
<text text-anchor="middle" x="169.8" y="-286.55" font-family="Times,serif" font-size="14.00">85 (S 2)</text>
</g>
<!-- n1&#45;&gt;n3 -->
<g id="edge2" class="edge">
<title>n1&#45;&gt;n3</title>
<path fill="none" stroke="black" d="M133.18,-346.01C138.79,-337.82 145.7,-327.74 152,-318.55"/>
<polygon fill="black" stroke="black" points="154.88,-320.54 157.65,-310.32 149.11,-316.59 154.88,-320.54"/>
</g>
<!-- n2&#45;&gt;l1 -->
<g id="edge3" class="edge">
<title>n2&#45;&gt;l1</title>
<path fill="none" stroke="black" d="M59.5,-274.72C49.29,-263.37 35.6,-248.16 25.34,-236.75"/>
<polygon fill="black" stroke="black" points="27.98,-234.45 18.69,-229.36 22.77,-239.14 27.98,-234.45"/>
</g>
<!-- n4 -->
<g id="node12" class="node">
<title>n4</title>
<ellipse fill="none" stroke="black" cx="80.8" cy="-219.6" rx="41.12" ry="18"/>
<text text-anchor="middle" x="80.8" y="-214.55" font-family="Times,serif" font-size="14.00">36 (S 3)</text>
</g>
<!-- n2&#45;&gt;n4 -->
<g id="edge4" class="edge">
<title>n2&#45;&gt;n4</title>
<path fill="none" stroke="black" d="M75.53,-273.3C76.26,-266.01 77.13,-257.33 77.95,-249.14"/>
<polygon fill="black" stroke="black" points="81.43,-249.51 78.94,-239.21 74.46,-248.81 81.43,-249.51"/>
</g>
<!-- n3&#45;&gt;l2 -->
<g id="edge5" class="edge">
<title>n3&#45;&gt;l2</title>
<path fill="none" stroke="black" d="M168.32,-273.3C167.51,-263.85 166.5,-252.06 165.64,-242.03"/>
<polygon fill="black" stroke="black" points="169.13,-241.75 164.78,-232.08 162.15,-242.35 169.13,-241.75"/>
</g>
<!-- n5 -->
<g id="node13" class="node">
<title>n5</title>
<ellipse fill="none" stroke="black" cx="233.8" cy="-219.6" rx="41.12" ry="18"/>
<text text-anchor="middle" x="233.8" y="-214.55" font-family="Times,serif" font-size="14.00">96 (S 1)</text>
</g>
<!-- n3&#45;&gt;n5 -->
<g id="edge6" class="edge">
<title>n3&#45;&gt;n5</title>
<path fill="none" stroke="black" d="M184.64,-274.36C192.56,-265.71 202.46,-254.87 211.3,-245.2"/>
<polygon fill="black" stroke="black" points="213.85,-247.61 218.02,-237.86 208.68,-242.88 213.85,-247.61"/>
</g>
<!-- n4&#45;&gt;l3 -->
<g id="edge8" class="edge">
<title>n4&#45;&gt;l3</title>
<path fill="none" stroke="black" d="M88.55,-201.65C93.16,-191.55 99.05,-178.69 103.86,-168.15"/>
<polygon fill="black" stroke="black" points="106.95,-169.81 107.93,-159.26 100.59,-166.9 106.95,-169.81"/>
</g>
<!-- n6 -->
<g id="node14" class="node">
<title>n6</title>
<ellipse fill="none" stroke="black" cx="47.8" cy="-147.6" rx="36.51" ry="18"/>
<text text-anchor="middle" x="47.8" y="-142.55" font-family="Times,serif" font-size="14.00">7 (S 2)</text>
</g>
<!-- n4&#45;&gt;n6 -->
<g id="edge7" class="edge">
<title>n4&#45;&gt;n6</title>
<path fill="none" stroke="black" d="M72.81,-201.65C69.12,-193.83 64.65,-184.35 60.52,-175.58"/>
<polygon fill="black" stroke="black" points="63.79,-174.31 56.36,-166.76 57.46,-177.3 63.79,-174.31"/>
</g>
<!-- n5&#45;&gt;l4 -->
<g id="edge9" class="edge">
<title>n5&#45;&gt;l4</title>
<path fill="none" stroke="black" d="M228.86,-201.3C226.06,-191.52 222.55,-179.24 219.63,-169"/>
<polygon fill="black" stroke="black" points="223.06,-168.29 216.95,-159.63 216.33,-170.21 223.06,-168.29"/>
</g>
<!-- n5&#45;&gt;l5 -->
<g id="edge10" class="edge">
<title>n5&#45;&gt;l5</title>
<path fill="none" stroke="black" d="M238.74,-201.3C241.54,-191.52 245.05,-179.24 247.97,-169"/>
<polygon fill="black" stroke="black" points="251.27,-170.21 250.65,-159.63 244.54,-168.29 251.27,-170.21"/>
</g>
<!-- n6&#45;&gt;l6 -->
<g id="edge11" class="edge">
<title>n6&#45;&gt;l6</title>
<path fill="none" stroke="black" d="M39.33,-129.65C34.28,-119.55 27.84,-106.69 22.58,-96.15"/>
<polygon fill="black" stroke="black" points="25.72,-94.61 18.12,-87.24 19.46,-97.75 25.72,-94.61"/>
</g>
<!-- n7 -->
<g id="node15" class="node">
<title>n7</title>
<ellipse fill="none" stroke="black" cx="82.8" cy="-75.6" rx="41.12" ry="18"/>
<text text-anchor="middle" x="82.8" y="-70.55" font-family="Times,serif" font-size="14.00">26 (S 1)</text>
</g>
<!-- n6&#45;&gt;n7 -->
<g id="edge12" class="edge">
<title>n6&#45;&gt;n7</title>
<path fill="none" stroke="black" d="M56.27,-129.65C60.18,-121.83 64.93,-112.35 69.31,-103.58"/>
<polygon fill="black" stroke="black" points="72.39,-105.25 73.73,-94.74 66.13,-102.12 72.39,-105.25"/>
</g>
<!-- n7&#45;&gt;l7 -->
<g id="edge13" class="edge">
<title>n7&#45;&gt;l7</title>
<path fill="none" stroke="black" d="M77.33,-57.44C74.85,-49.63 71.89,-40.33 69.29,-32.17"/>
<polygon fill="black" stroke="black" points="72.67,-31.25 66.3,-22.78 66,-33.37 72.67,-31.25"/>
</g>
<!-- n7&#45;&gt;l8 -->
<g id="edge14" class="edge">
<title>n7&#45;&gt;l8</title>
<path fill="none" stroke="black" d="M88.27,-57.44C90.75,-49.63 93.71,-40.33 96.31,-32.17"/>
<polygon fill="black" stroke="black" points="99.6,-33.37 99.3,-22.78 92.93,-31.25 99.6,-33.37"/>
</g>
</g>
</svg>
